<svg width="55" height="50" viewBox="0 0 55 50" fill="none" xmlns="http://www.w3.org/2000/svg">
<g id="circle-xmark-regular" clip-path="url(#clip0_90_391)">
<path id="Vector" d="M27.5 4.6875C33.4259 4.6875 39.1092 6.82756 43.2994 10.6369C47.4897 14.4462 49.8438 19.6128 49.8438 25C49.8438 30.3872 47.4897 35.5538 43.2994 39.3631C39.1092 43.1724 33.4259 45.3125 27.5 45.3125C21.5741 45.3125 15.8908 43.1724 11.7006 39.3631C7.51032 35.5538 5.15625 30.3872 5.15625 25C5.15625 19.6128 7.51032 14.4462 11.7006 10.6369C15.8908 6.82756 21.5741 4.6875 27.5 4.6875ZM27.5 50C34.7935 50 41.7882 47.3661 46.9454 42.6777C52.1027 37.9893 55 31.6304 55 25C55 18.3696 52.1027 12.0107 46.9454 7.32233C41.7882 2.63392 34.7935 0 27.5 0C20.2065 0 13.2118 2.63392 8.05456 7.32233C2.89731 12.0107 0 18.3696 0 25C0 31.6304 2.89731 37.9893 8.05456 42.6777C13.2118 47.3661 20.2065 50 27.5 50ZM18.7988 17.0898C17.7891 18.0078 17.7891 19.4922 18.7988 20.4004L23.8477 24.9902L18.7988 29.5801C17.7891 30.498 17.7891 31.9824 18.7988 32.8906C19.8086 33.7988 21.4414 33.8086 22.4404 32.8906L27.4893 28.3008L32.5381 32.8906C33.5479 33.8086 35.1807 33.8086 36.1797 32.8906C37.1787 31.9727 37.1895 30.4883 36.1797 29.5801L31.1309 24.9902L36.1797 20.4004C37.1895 19.4824 37.1895 17.998 36.1797 17.0898C35.1699 16.1816 33.5371 16.1719 32.5381 17.0898L27.4893 21.6797L22.4404 17.0898C21.4307 16.1719 19.7979 16.1719 18.7988 17.0898Z" fill="#33A1B3"/>
</g>
<defs>
<clipPath id="clip0_90_391">
<rect width="55" height="50" fill="white"/>
</clipPath>
</defs>
</svg>
