<svg width="34" height="34" viewBox="0 0 34 34" fill="none" xmlns="http://www.w3.org/2000/svg">
<g clip-path="url(#clip0_290_342)">
<path d="M17 3.1875C20.6633 3.1875 24.1766 4.64274 26.7669 7.23309C29.3573 9.82343 30.8125 13.3367 30.8125 17C30.8125 20.6633 29.3573 24.1766 26.7669 26.7669C24.1766 29.3573 20.6633 30.8125 17 30.8125C13.3367 30.8125 9.82343 29.3573 7.23309 26.7669C4.64274 24.1766 3.1875 20.6633 3.1875 17C3.1875 13.3367 4.64274 9.82343 7.23309 7.23309C9.82343 4.64274 13.3367 3.1875 17 3.1875ZM17 34C21.5087 34 25.8327 32.2089 29.0208 29.0208C32.2089 25.8327 34 21.5087 34 17C34 12.4913 32.2089 8.1673 29.0208 4.97918C25.8327 1.79107 21.5087 0 17 0C12.4913 0 8.1673 1.79107 4.97918 4.97918C1.79107 8.1673 0 12.4913 0 17C0 21.5087 1.79107 25.8327 4.97918 29.0208C8.1673 32.2089 12.4913 34 17 34ZM11.6211 11.6211C10.9969 12.2453 10.9969 13.2547 11.6211 13.8723L14.7422 16.9934L11.6211 20.1145C10.9969 20.7387 10.9969 21.748 11.6211 22.3656C12.2453 22.9832 13.2547 22.9898 13.8723 22.3656L16.9934 19.2445L20.1145 22.3656C20.7387 22.9898 21.748 22.9898 22.3656 22.3656C22.9832 21.7414 22.9898 20.732 22.3656 20.1145L19.2445 16.9934L22.3656 13.8723C22.9898 13.248 22.9898 12.2387 22.3656 11.6211C21.7414 11.0035 20.732 10.9969 20.1145 11.6211L16.9934 14.7422L13.8723 11.6211C13.248 10.9969 12.2387 10.9969 11.6211 11.6211Z" fill="#33A1B3"/>
</g>
<defs>
<clipPath id="clip0_290_342">
<rect width="34" height="34" fill="white"/>
</clipPath>
</defs>
</svg>
