<svg width="102" height="74" viewBox="0 0 102 74" fill="none" xmlns="http://www.w3.org/2000/svg">
<path d="M68.4982 44.0458C68.777 44.0625 69.0869 44.0262 69.4262 43.9326C72.0491 43.2093 72.8083 40.1528 70.7836 38.4677L64.7923 33.4815C60.7995 30.6593 63.0246 24.7909 68.1043 24.8527L87.9265 25.094C89.2532 25.0895 90.3273 24.1064 90.3273 22.8944V17.9035V17.6766C90.3273 16.4618 89.2484 15.477 87.9175 15.477H72.5471C71.9269 15.477 71.3241 15.4692 70.7367 15.4616C67.8981 15.4247 65.4207 15.3925 63.0949 16.2718C60.2022 17.3655 57.7298 19.2176 55.9903 21.5939C54.2508 23.9702 53.3223 26.7639 53.3223 29.6218C53.3223 32.4798 54.2508 35.2735 55.9903 37.6498C57.7298 40.026 60.2022 41.8781 63.0949 42.9718C65.1378 43.7442 67.3682 43.9783 68.4982 44.0458Z" fill="#11363C"/>
<path d="M68.4982 44.0458L68.403 45.3718M68.4982 44.0458C68.777 44.0625 69.0869 44.0262 69.4262 43.9326C72.0491 43.2093 72.8083 40.1528 70.7836 38.4677L64.7923 33.4815C60.7995 30.6593 63.0246 24.7909 68.1043 24.8527L87.9265 25.094C89.2532 25.0895 90.3273 24.1064 90.3273 22.8944V17.9035V17.6766C90.3273 16.4618 89.2484 15.477 87.9175 15.477H72.5471C71.9269 15.477 71.3241 15.4692 70.7367 15.4616C67.8981 15.4247 65.4207 15.3925 63.0949 16.2718C60.2022 17.3655 57.7298 19.2176 55.9903 21.5939C54.2508 23.9702 53.3223 26.7639 53.3223 29.6218C53.3223 32.4798 54.2508 35.2735 55.9903 37.6498C57.7298 40.026 60.2022 41.8781 63.0949 42.9718C65.1378 43.7442 67.3682 43.9783 68.4982 44.0458Z" stroke="#33A1B3" stroke-width="3"/>
<path d="M37.7201 42.8753C35.6646 43.6282 33.4277 43.8407 32.2956 43.8973C32.0165 43.9112 31.7069 43.8719 31.3684 43.7752C28.7522 43.0271 28.0235 39.9663 30.066 38.3046L36.1332 33.3682C40.1602 30.5874 37.9899 24.6963 32.903 24.7091L13.0621 24.7588C11.7355 24.7415 10.6717 23.7482 10.6857 22.5379L10.7436 17.5473L10.7463 17.3205C10.7604 16.1029 11.8533 15.1276 13.189 15.1405L28.5796 15.2889C29.2007 15.2949 29.8044 15.2929 30.3927 15.2909C33.2354 15.2815 35.7164 15.2732 38.0349 16.1749C40.9182 17.2963 43.3719 19.1718 45.0857 21.5642C46.7995 23.9566 47.6968 26.7589 47.6637 29.6168C47.6305 32.4748 46.6683 35.2601 44.8983 37.6203C43.1282 39.9805 40.6302 41.8093 37.7201 42.8753Z" fill="#33A1B3" stroke="#11363C" stroke-width="3"/>
<path d="M83.4366 31.2403C81.3927 30.4701 79.1619 30.2385 78.0318 30.1721C77.753 30.1558 77.4432 30.1924 77.1041 30.2863C74.4824 31.0123 73.7267 34.0693 75.7531 35.7517L81.7519 40.7323C85.748 43.55 83.5294 49.4211 78.4495 49.3648L58.6279 49.1449C57.3015 49.1508 56.2289 50.135 56.2305 51.3467L56.2369 56.3376L56.2372 56.5645C56.2388 57.7795 57.319 58.7632 58.6502 58.7618L74.0205 58.7452C74.6407 58.7446 75.2436 58.7518 75.8311 58.7588C78.6696 58.7926 81.147 58.8221 83.4717 57.9403C86.3629 56.8435 88.8328 54.9888 90.5692 52.6107C92.3056 50.2327 93.2304 47.438 93.2267 44.5801C93.223 41.7221 92.291 38.9293 90.5483 36.5549C88.8057 34.1804 86.3308 32.3309 83.4366 31.2403Z" fill="#11363C" stroke="#33A1B3" stroke-width="3"/>
<path d="M25.1298 34.1694V54.5318C25.1298 57.4146 22.7928 59.7515 19.9101 59.7515C17.0274 59.7515 14.6904 57.4146 14.6904 54.5318V34.1694C14.6904 31.2866 17.0274 28.9497 19.9101 28.9497C22.7928 28.9497 25.1298 31.2866 25.1298 34.1694Z" fill="#33A1B3" stroke="#11363C" stroke-width="3"/>
</svg>
