<svg width="29" height="29" viewBox="0 0 29 29" fill="none" xmlns="http://www.w3.org/2000/svg">
<path d="M16.8754 14.3709C16.8479 14.3435 16.8261 14.311 16.8113 14.2751C16.7964 14.2393 16.7887 14.2009 16.7887 14.162C16.7887 14.1232 16.7964 14.0848 16.8113 14.049C16.8261 14.0131 16.8479 13.9806 16.8754 13.9532L27.8066 3.02273C28.1385 2.69033 28.3248 2.23969 28.3244 1.76994C28.3241 1.30019 28.1372 0.849813 27.8048 0.517885C27.4724 0.185957 27.0218 -0.00033153 26.5521 4.42931e-07C26.0823 0.000332416 25.632 0.187258 25.3001 0.519655L14.3701 11.4454C14.3427 11.4728 14.3101 11.4946 14.2743 11.5095C14.2384 11.5244 14.2 11.532 14.1612 11.532C14.1224 11.532 14.084 11.5244 14.0481 11.5095C14.0123 11.4946 13.9797 11.4728 13.9523 11.4454L3.02236 0.519655C2.85801 0.355224 2.66289 0.224774 2.44813 0.135755C2.23337 0.0467356 2.00318 0.000889693 1.7707 0.0008349C1.30119 0.000724241 0.85087 0.187137 0.518799 0.519065C0.186728 0.850993 0.000110704 1.30125 4.92374e-08 1.77077C-0.000110606 2.2403 0.186295 2.69064 0.518209 3.02273L11.447 13.9532C11.4745 13.9806 11.4963 14.0131 11.5112 14.049C11.526 14.0848 11.5337 14.1232 11.5337 14.162C11.5337 14.2009 11.526 14.2393 11.5112 14.2751C11.4963 14.311 11.4745 14.3435 11.447 14.3709L0.518209 25.3025C0.353862 25.467 0.22351 25.6622 0.134595 25.877C0.0456807 26.0918 -5.47414e-05 26.322 4.92374e-08 26.5545C0.000110704 27.024 0.186728 27.4743 0.518799 27.8062C0.683224 27.9706 0.878409 28.1009 1.09321 28.1898C1.30801 28.2788 1.53822 28.3245 1.7707 28.3244C2.24021 28.3243 2.69044 28.1377 3.02236 27.8056L13.9523 16.874C13.9797 16.8465 14.0123 16.8247 14.0481 16.8099C14.084 16.795 14.1224 16.7873 14.1612 16.7873C14.2 16.7873 14.2384 16.795 14.2743 16.8099C14.3101 16.8247 14.3427 16.8465 14.3701 16.874L25.3001 27.8056C25.632 28.1377 26.0822 28.3243 26.5517 28.3244C27.0212 28.3246 27.4716 28.1381 27.8036 27.8062C28.1357 27.4743 28.3223 27.024 28.3224 26.5545C28.3225 26.085 28.1361 25.6346 27.8042 25.3025L16.8754 14.3709Z" fill="#141414" fill-opacity="0.7"/>
</svg>
