<svg width="30" height="30" viewBox="0 0 30 30" fill="none" xmlns="http://www.w3.org/2000/svg">
<path d="M11.6667 24C12.1087 24 12.5326 23.842 12.8452 23.5607C13.1577 23.2794 13.3333 22.8978 13.3333 22.5V13.5C13.3333 13.1022 13.1577 12.7206 12.8452 12.4393C12.5326 12.158 12.1087 12 11.6667 12C11.2246 12 10.8007 12.158 10.4882 12.4393C10.1756 12.7206 10 13.1022 10 13.5V22.5C10 22.8978 10.1756 23.2794 10.4882 23.5607C10.8007 23.842 11.2246 24 11.6667 24ZM28.3333 6H21.6667V4.5C21.6667 3.30653 21.1399 2.16193 20.2022 1.31802C19.2645 0.474106 17.9927 0 16.6667 0H13.3333C12.0073 0 10.7355 0.474106 9.7978 1.31802C8.86012 2.16193 8.33333 3.30653 8.33333 4.5V6H1.66667C1.22464 6 0.800716 6.15804 0.488155 6.43934C0.175595 6.72064 0 7.10218 0 7.5C0 7.89783 0.175595 8.27936 0.488155 8.56066C0.800716 8.84197 1.22464 9 1.66667 9H3.33333V25.5C3.33333 26.6935 3.86012 27.8381 4.7978 28.682C5.73548 29.5259 7.00725 30 8.33333 30H21.6667C22.9927 30 24.2645 29.5259 25.2022 28.682C26.1399 27.8381 26.6667 26.6935 26.6667 25.5V9H28.3333C28.7754 9 29.1993 8.84197 29.5118 8.56066C29.8244 8.27936 30 7.89783 30 7.5C30 7.10218 29.8244 6.72064 29.5118 6.43934C29.1993 6.15804 28.7754 6 28.3333 6ZM11.6667 4.5C11.6667 4.10218 11.8423 3.72064 12.1548 3.43934C12.4674 3.15804 12.8913 3 13.3333 3H16.6667C17.1087 3 17.5326 3.15804 17.8452 3.43934C18.1577 3.72064 18.3333 4.10218 18.3333 4.5V6H11.6667V4.5ZM23.3333 25.5C23.3333 25.8978 23.1577 26.2794 22.8452 26.5607C22.5326 26.842 22.1087 27 21.6667 27H8.33333C7.89131 27 7.46738 26.842 7.15482 26.5607C6.84226 26.2794 6.66667 25.8978 6.66667 25.5V9H23.3333V25.5ZM18.3333 24C18.7754 24 19.1993 23.842 19.5118 23.5607C19.8244 23.2794 20 22.8978 20 22.5V13.5C20 13.1022 19.8244 12.7206 19.5118 12.4393C19.1993 12.158 18.7754 12 18.3333 12C17.8913 12 17.4674 12.158 17.1548 12.4393C16.8423 12.7206 16.6667 13.1022 16.6667 13.5V22.5C16.6667 22.8978 16.8423 23.2794 17.1548 23.5607C17.4674 23.842 17.8913 24 18.3333 24Z" fill="#141414" fill-opacity="0.7"/>
</svg>
