<svg width="15" height="15" viewBox="0 0 15 15" fill="none" xmlns="http://www.w3.org/2000/svg">
<g clip-path="url(#clip0_474_5084)">
<path d="M10.4167 7.48242V7.03125V6.09375C10.4167 5.83594 10.2292 5.625 10 5.625H9.16667H8.75H7.53906C6.21354 5.625 5.09375 6.60645 4.71875 7.95703C4.63281 7.68164 4.58333 7.37695 4.58333 7.03125C4.58333 5.21777 5.88802 3.75 7.5 3.75H8.75H9.16667H10C10.2292 3.75 10.4167 3.53906 10.4167 3.28125V2.34375V1.89258L13.1771 4.6875L10.4167 7.48242ZM8.75 7.03125H9.16667V8.4375C9.16667 8.95605 9.53906 9.375 10 9.375H10.0964C10.3021 9.375 10.5 9.29004 10.6536 9.13477L14.2734 5.46973C14.4714 5.27051 14.5833 4.98633 14.5833 4.6875C14.5833 4.38867 14.4714 4.10449 14.2734 3.90527L10.6745 0.260742C10.5078 0.09375 10.2943 0 10.0703 0C9.57031 0 9.16667 0.454102 9.16667 1.0166V2.34375H8.75H7.91667H7.5C5.19792 2.34375 3.33333 4.44141 3.33333 7.03125C3.33333 8.80078 4.23438 9.93457 4.9974 10.5732C5.15104 10.7021 5.29688 10.8105 5.43229 10.9014C5.54688 10.9805 5.65365 11.0449 5.74219 11.0947C5.83073 11.1445 5.90365 11.1826 5.95573 11.209C6.01302 11.2383 6.07552 11.25 6.14063 11.25H6.20573C6.46094 11.25 6.66927 11.0156 6.66927 10.7285C6.66927 10.5 6.53125 10.2979 6.36719 10.1572C6.35677 10.1484 6.34896 10.1426 6.33854 10.1338C6.29427 10.1016 6.25 10.0605 6.20833 10.0137C6.1875 9.99023 6.16406 9.9668 6.14323 9.9375C6.1224 9.9082 6.10156 9.88184 6.08073 9.85254C6.03385 9.7793 5.98958 9.69727 5.95052 9.60352C5.88281 9.42773 5.83854 9.21387 5.83854 8.94727C5.83854 7.88965 6.60156 7.02832 7.54427 7.02832H7.91667H8.75V7.03125ZM1.875 0.9375C0.838542 0.9375 0 1.88086 0 3.04688V12.8906C0 14.0566 0.838542 15 1.875 15H10.625C11.6615 15 12.5 14.0566 12.5 12.8906V11.0156C12.5 10.626 12.2214 10.3125 11.875 10.3125C11.5286 10.3125 11.25 10.626 11.25 11.0156V12.8906C11.25 13.2803 10.9714 13.5938 10.625 13.5938H1.875C1.52865 13.5938 1.25 13.2803 1.25 12.8906V3.04688C1.25 2.65723 1.52865 2.34375 1.875 2.34375H3.54167C3.88802 2.34375 4.16667 2.03027 4.16667 1.64062C4.16667 1.25098 3.88802 0.9375 3.54167 0.9375H1.875Z" fill="#141414" fill-opacity="0.7"/>
</g>
<defs>
<clipPath id="clip0_474_5084">
<rect width="15" height="15" fill="white"/>
</clipPath>
</defs>
</svg>
