<svg width="95" height="80" viewBox="0 0 95 80" fill="none" xmlns="http://www.w3.org/2000/svg">
<path d="M47.2847 79.7501C46.0487 79.7531 44.8243 79.5117 43.682 79.0397C42.5396 78.5678 41.5019 77.8746 40.6284 77.0001L8.44095 44.8126C5.89826 42.2422 3.89248 39.1916 2.54047 35.8384C1.18846 32.4852 0.517252 28.8965 0.565949 25.2813C0.590448 21.9683 1.26832 18.6927 2.56074 15.6421C3.85315 12.5915 5.73472 9.8258 8.09766 7.5035C10.4606 5.1812 13.2585 3.34789 16.3311 2.10858C19.4036 0.86928 22.6905 0.248332 26.0034 0.281307C29.3757 0.247339 32.7204 0.890919 35.8392 2.17388C38.958 3.45684 41.7875 5.35305 44.1597 7.75006L47.2847 10.8751L49.8472 8.31256C54.2719 3.77058 60.1928 0.986034 66.5131 0.474665C72.8334 -0.0367053 79.1248 1.75975 84.2222 5.53131C87.1238 7.76584 89.5161 10.5929 91.2397 13.8243C92.9632 17.0557 93.9786 20.6172 94.2181 24.2717C94.4576 27.9262 93.9157 31.5897 92.6286 35.0184C91.3415 38.4471 89.3386 41.5622 86.7534 44.1563L53.9409 77.0001C53.0675 77.8746 52.0298 78.5678 50.8874 79.0397C49.7451 79.5117 48.5207 79.7531 47.2847 79.7501ZM25.8784 6.50006C20.9113 6.49499 16.1371 8.42262 12.5659 11.8751C10.7453 13.6268 9.29747 15.7283 8.30938 18.0536C7.32128 20.3789 6.8133 22.8798 6.81595 25.4063C6.78856 28.1854 7.31309 30.9423 8.35913 33.5172C9.40517 36.0921 10.9519 38.4337 12.9097 40.4063L45.0972 72.5938C45.3877 72.8867 45.7333 73.1192 46.1141 73.2778C46.495 73.4365 46.9034 73.5182 47.316 73.5182C47.7285 73.5182 48.1369 73.4365 48.5178 73.2778C48.8986 73.1192 49.2442 72.8867 49.5347 72.5938L82.3784 39.7188C84.3063 37.7502 85.7958 35.3959 86.7491 32.8107C87.7025 30.2255 88.098 27.4678 87.9097 24.7188C87.7428 21.9417 86.9779 19.2334 85.6672 16.7793C84.3566 14.3252 82.5312 12.1832 80.3159 10.5001C76.4288 7.6341 71.6324 6.27898 66.8203 6.68718C62.0081 7.09538 57.5085 9.23905 54.1597 12.7188L49.5034 17.5001C49.2129 17.793 48.8673 18.0254 48.4865 18.1841C48.1057 18.3427 47.6972 18.4244 47.2847 18.4244C46.8722 18.4244 46.4637 18.3427 46.0829 18.1841C45.7021 18.0254 45.3565 17.793 45.0659 17.5001L39.7535 12.1876C36.0944 8.5603 31.1557 6.51746 26.0034 6.50006H25.8784Z" fill="#E6E6E6"/>
</svg>
