<svg width="164" height="131" viewBox="0 0 164 131" fill="none" xmlns="http://www.w3.org/2000/svg">
<path d="M101.44 76.0058C104.727 77.3636 108.316 77.775 110.133 77.8937C110.584 77.9231 111.084 77.859 111.631 77.6942C115.86 76.4201 117.084 71.0355 113.819 68.067L104.186 59.3071C97.7773 54.3584 101.348 44.0677 109.501 44.1761L141.372 44.5999C143.514 44.592 145.248 42.858 145.248 40.7201L145.248 31.9523V31.5538C145.248 29.411 143.506 27.6739 141.357 27.6739L116.644 27.6739C115.648 27.6739 114.679 27.6601 113.734 27.6467C109.17 27.5818 105.183 27.5252 101.44 29.0714C96.7865 30.9939 92.8088 34.2496 90.0102 38.4267C87.2116 42.6038 85.7179 47.5148 85.7179 52.5386C85.7179 57.5624 87.2116 62.4733 90.0102 66.6505C92.8088 70.8276 96.7865 74.0833 101.44 76.0058Z" fill="#11363C" stroke="#33A1B3" stroke-width="5"/>
<path d="M60.6573 75.8362C57.3513 77.1594 53.7538 77.5329 51.9325 77.6324C51.4808 77.6571 50.9805 77.5877 50.4345 77.4171C46.2124 76.0981 45.0433 70.6995 48.3443 67.7651L58.0843 59.1066C64.5523 54.2271 61.0861 43.901 52.9234 43.9234L21.0062 44.0109C18.8609 43.9805 17.1424 42.2275 17.1651 40.0889L17.2583 31.3216L17.2625 30.9231C17.2853 28.7793 19.0486 27.0599 21.2012 27.0826L45.9468 27.3433C46.9446 27.3538 47.9149 27.3503 48.8606 27.3468C53.4313 27.3301 57.4246 27.3156 61.1563 28.9013C65.7961 30.8729 69.7447 34.1706 72.5028 38.3772C75.2608 42.5839 76.7044 47.5106 76.6511 52.5345C76.5977 57.5583 75.0497 62.4536 72.2028 66.6013C69.356 70.749 65.3381 73.9628 60.6573 75.8362Z" fill="#33A1B3" stroke="#11363C" stroke-width="5"/>
<path d="M134.16 55.367C130.871 54.013 127.283 53.6059 125.465 53.4893C125.014 53.4604 124.514 53.5251 123.967 53.6905C119.74 54.9696 118.522 60.3556 121.79 63.3202L131.434 72.0689C137.849 77.01 134.29 87.3049 126.137 87.2061L94.2653 86.8197C92.1235 86.8302 90.3918 88.5663 90.3943 90.7042L90.4047 99.4719L90.4051 99.8704C90.4077 102.013 92.1515 103.748 94.3001 103.746L119.013 103.717C120.01 103.716 120.979 103.728 121.923 103.74C126.487 103.8 130.474 103.852 134.215 102.301C138.867 100.373 142.841 97.113 145.634 92.9326C148.428 88.7522 149.916 83.8395 149.91 78.8157C149.904 73.7919 148.405 68.8827 145.601 64.7088C142.798 60.535 138.816 57.284 134.16 55.367Z" fill="#11363C" stroke="#33A1B3" stroke-width="5"/>
<path d="M23.708 59.5268C23.708 54.9406 27.4259 51.2227 32.0122 51.2227C36.5984 51.2227 40.3163 54.9406 40.3163 59.5268V97.3C40.3163 101.886 36.5984 105.604 32.0122 105.604C27.4259 105.604 23.708 101.886 23.708 97.3V59.5268Z" fill="#33A1B3" stroke="#11363C" stroke-width="5"/>
</svg>
