<svg width="25" height="26" viewBox="0 0 25 26" fill="none" xmlns="http://www.w3.org/2000/svg">
<path d="M0.770906 13.2052C-0.333344 13.835 -0.230737 15.5147 0.946804 16.003L7.80195 18.8594V23.9033C7.80195 24.7871 8.51532 25.5 9.39969 25.5C9.87364 25.5 10.3232 25.29 10.6261 24.9238L13.6555 21.2959L19.7093 23.8154C20.6328 24.2012 21.7028 23.5957 21.8543 22.6094L24.9813 2.29705C25.0742 1.70623 24.8152 1.11053 24.3217 0.773622C23.8282 0.436711 23.1833 0.407414 22.6605 0.705263L0.770906 13.2052ZM3.31654 14.4503L20.0024 4.92398L9.27266 16.9063L9.33129 16.9551L3.31654 14.4503ZM19.6897 21.2715L11.5496 17.878L22.0106 6.1935L19.6897 21.2715Z" fill="#226B77"/>
</svg>
