<svg width="300" height="202" viewBox="0 0 300 202" fill="none" xmlns="http://www.w3.org/2000/svg">
<rect width="300" height="201.573" rx="2.69663" fill="#F2F2F2"/>
<rect x="0.337079" y="0.337079" width="299.326" height="200.899" rx="2.35955" stroke="#384EB7" stroke-opacity="0.3" stroke-width="0.674157" stroke-dasharray="3.37 3.37"/>
<path d="M45.8343 116.578C46.1255 116.319 46.4635 116.122 46.8482 115.985C47.2329 115.848 47.6698 115.78 48.1588 115.78C48.5579 115.78 48.9156 115.829 49.232 115.926C49.552 116.023 49.8235 116.159 50.0464 116.336C50.2693 116.512 50.4401 116.72 50.5588 116.961C50.681 117.202 50.7421 117.466 50.7421 117.754C50.7421 118.142 50.6451 118.484 50.4509 118.779C50.2603 119.074 49.9907 119.302 49.6419 119.464C49.8397 119.546 50.0194 119.649 50.1812 119.771C50.343 119.89 50.4815 120.025 50.5965 120.176C50.7152 120.327 50.8051 120.492 50.8662 120.672C50.9309 120.851 50.9633 121.04 50.9633 121.238C50.9633 121.576 50.9003 121.892 50.7745 122.187C50.6487 122.482 50.4653 122.739 50.2244 122.958C49.9871 123.174 49.6941 123.345 49.3453 123.471C48.9965 123.597 48.5992 123.66 48.1534 123.66C47.5997 123.66 47.1017 123.57 46.6594 123.39C46.2172 123.207 45.8379 122.96 45.5215 122.651L45.8235 122.155C45.8523 122.115 45.8882 122.083 45.9314 122.058C45.9745 122.029 46.0212 122.015 46.0716 122.015C46.1471 122.015 46.237 122.056 46.3412 122.139C46.4455 122.218 46.5785 122.306 46.7403 122.403C46.9021 122.5 47.0981 122.59 47.3282 122.673C47.5619 122.752 47.846 122.791 48.1803 122.791C48.4644 122.791 48.7179 122.757 48.9408 122.689C49.1673 122.62 49.3561 122.522 49.5071 122.392C49.6617 122.263 49.7785 122.105 49.8576 121.918C49.9403 121.731 49.9817 121.52 49.9817 121.287C49.9817 121.085 49.9421 120.9 49.863 120.731C49.7875 120.562 49.6761 120.418 49.5287 120.3C49.3812 120.177 49.2015 120.084 48.9893 120.019C48.7772 119.951 48.5381 119.917 48.272 119.917H47.215V119.059H48.2289C48.4482 119.059 48.6514 119.032 48.8383 118.978C49.0289 118.924 49.1907 118.845 49.3237 118.741C49.4603 118.637 49.5664 118.509 49.6419 118.358C49.721 118.207 49.7606 118.034 49.7606 117.84C49.7606 117.664 49.7246 117.502 49.6527 117.355C49.5808 117.207 49.4765 117.082 49.3399 116.977C49.2033 116.869 49.0361 116.787 48.8383 116.729C48.6406 116.672 48.4159 116.643 48.1642 116.643C47.8729 116.643 47.6248 116.674 47.4199 116.735C47.215 116.796 47.0424 116.864 46.9021 116.94C46.7619 117.011 46.6469 117.078 46.557 117.139C46.4707 117.2 46.3952 117.231 46.3305 117.231C46.2729 117.231 46.2262 117.218 46.1902 117.193C46.1543 117.168 46.1201 117.127 46.0878 117.069L45.8343 116.578ZM55.1364 121.125C54.6941 121.139 54.3166 121.175 54.0038 121.233C53.6946 121.287 53.4411 121.358 53.2434 121.448C53.0492 121.538 52.9072 121.644 52.8173 121.767C52.731 121.889 52.6878 122.025 52.6878 122.176C52.6878 122.32 52.7112 122.444 52.758 122.549C52.8047 122.653 52.8676 122.739 52.9467 122.807C53.0294 122.872 53.1247 122.921 53.2326 122.953C53.344 122.982 53.4627 122.996 53.5885 122.996C53.7575 122.996 53.9121 122.98 54.0523 122.948C54.1926 122.912 54.3238 122.861 54.446 122.797C54.5719 122.732 54.6905 122.655 54.802 122.565C54.9171 122.475 55.0285 122.372 55.1364 122.257V121.125ZM52.0353 118.892C52.3373 118.601 52.6627 118.383 53.0114 118.239C53.3602 118.096 53.7467 118.024 54.171 118.024C54.4766 118.024 54.7481 118.074 54.9854 118.175C55.2227 118.275 55.4222 118.416 55.584 118.595C55.7458 118.775 55.8681 118.993 55.9508 119.248C56.0335 119.503 56.0748 119.784 56.0748 120.089V123.584H55.6487C55.5553 123.584 55.4834 123.57 55.433 123.541C55.3827 123.509 55.3431 123.447 55.3144 123.358L55.2065 122.84C55.0627 122.973 54.9225 123.091 54.7858 123.196C54.6492 123.296 54.5054 123.383 54.3544 123.455C54.2034 123.523 54.0416 123.575 53.869 123.611C53.7 123.651 53.5112 123.67 53.3027 123.67C53.0905 123.67 52.891 123.642 52.704 123.584C52.5171 123.523 52.3535 123.433 52.2132 123.314C52.0766 123.196 51.9669 123.047 51.8842 122.867C51.8051 122.683 51.7656 122.468 51.7656 122.22C51.7656 122.004 51.8249 121.797 51.9436 121.599C52.0622 121.398 52.2546 121.22 52.5207 121.065C52.7867 120.911 53.1337 120.785 53.5616 120.688C53.9894 120.587 54.5144 120.53 55.1364 120.515V120.089C55.1364 119.665 55.0447 119.345 54.8613 119.129C54.678 118.91 54.4101 118.8 54.0577 118.8C53.8204 118.8 53.6209 118.831 53.4591 118.892C53.3009 118.949 53.1625 119.016 53.0438 119.091C52.9287 119.163 52.8281 119.23 52.7418 119.291C52.6591 119.349 52.5764 119.377 52.4937 119.377C52.429 119.377 52.3732 119.361 52.3265 119.329C52.2798 119.293 52.2402 119.25 52.2078 119.199L52.0353 118.892ZM61.0805 118.854H58.5025V123.584H57.5371V118.121H61.0805V118.854ZM62.9583 122.268C63.1345 122.505 63.3268 122.673 63.5354 122.77C63.7439 122.867 63.9776 122.915 64.2365 122.915C64.7471 122.915 65.139 122.734 65.4122 122.371C65.6855 122.007 65.8221 121.49 65.8221 120.817C65.8221 120.461 65.7898 120.156 65.725 119.9C65.6639 119.645 65.574 119.437 65.4554 119.275C65.3367 119.109 65.1911 118.989 65.0185 118.914C64.8459 118.838 64.65 118.8 64.4307 118.8C64.1178 118.8 63.8428 118.872 63.6055 119.016C63.3718 119.16 63.156 119.363 62.9583 119.625V122.268ZM62.9098 118.967C63.1399 118.683 63.4059 118.455 63.708 118.282C64.01 118.11 64.3551 118.024 64.7435 118.024C65.0599 118.024 65.3457 118.085 65.601 118.207C65.8563 118.326 66.0738 118.504 66.2536 118.741C66.4334 118.975 66.5718 119.266 66.6689 119.615C66.7659 119.963 66.8145 120.364 66.8145 120.817C66.8145 121.22 66.7605 121.596 66.6527 121.945C66.5448 122.29 66.3884 122.59 66.1835 122.845C65.9821 123.097 65.734 123.296 65.4392 123.444C65.148 123.588 64.819 123.66 64.4522 123.66C64.1178 123.66 63.8302 123.604 63.5893 123.492C63.352 123.377 63.1417 123.219 62.9583 123.018V125.434H61.9929V118.121H62.57C62.7066 118.121 62.7911 118.187 62.8235 118.32L62.9098 118.967ZM72.595 118.121L69.5478 125.197C69.5154 125.269 69.4741 125.326 69.4237 125.369C69.377 125.412 69.3033 125.434 69.2026 125.434H68.4907L69.4884 123.266L67.2341 118.121H68.0646C68.1473 118.121 68.212 118.142 68.2588 118.185C68.3091 118.225 68.3433 118.27 68.3612 118.32L69.8228 121.761C69.8803 121.912 69.9289 122.07 69.9684 122.236C70.0188 122.067 70.0727 121.907 70.1302 121.756L71.5487 118.32C71.5702 118.263 71.6062 118.216 71.6565 118.18C71.7105 118.14 71.7698 118.121 71.8345 118.121H72.595ZM73.0557 118.682C73.2607 118.487 73.5088 118.331 73.8 118.212C74.0948 118.094 74.449 118.034 74.8625 118.034C75.1933 118.034 75.4845 118.076 75.7362 118.158C75.9879 118.238 76.1982 118.344 76.3672 118.477C76.5398 118.61 76.6692 118.762 76.7555 118.935C76.8454 119.104 76.8903 119.28 76.8903 119.464C76.8903 119.571 76.8724 119.685 76.8364 119.803C76.8041 119.922 76.7483 120.035 76.6692 120.143C76.5901 120.251 76.4876 120.352 76.3618 120.445C76.236 120.539 76.0796 120.614 75.8926 120.672C76.2414 120.776 76.5146 120.943 76.7124 121.173C76.9137 121.403 77.0144 121.686 77.0144 122.02C77.0144 122.272 76.9569 122.5 76.8418 122.705C76.7267 122.906 76.5721 123.079 76.378 123.223C76.1838 123.363 75.9573 123.471 75.6984 123.546C75.4432 123.622 75.1753 123.66 74.8948 123.66C74.7187 123.66 74.5389 123.643 74.3555 123.611C74.1757 123.579 73.9996 123.528 73.827 123.46C73.6544 123.388 73.4908 123.3 73.3362 123.196C73.1852 123.091 73.0503 122.966 72.9317 122.818L73.2014 122.468C73.2445 122.407 73.3056 122.376 73.3847 122.376C73.4494 122.376 73.5178 122.405 73.5897 122.462C73.6652 122.516 73.7569 122.577 73.8647 122.646C73.9726 122.714 74.1038 122.777 74.2584 122.834C74.4166 122.888 74.609 122.915 74.8355 122.915C75.0333 122.915 75.2094 122.892 75.3641 122.845C75.5223 122.795 75.6553 122.727 75.7632 122.64C75.871 122.554 75.9537 122.451 76.0112 122.333C76.0688 122.214 76.0975 122.085 76.0975 121.945C76.0975 121.675 75.9843 121.457 75.7578 121.292C75.5348 121.127 75.1951 121.044 74.7384 121.044H74.1182V120.407H74.7384C74.9362 120.407 75.1142 120.388 75.2724 120.348C75.4306 120.305 75.5654 120.247 75.6769 120.176C75.7883 120.104 75.8728 120.017 75.9303 119.917C75.9879 119.812 76.0166 119.701 76.0166 119.582C76.0166 119.474 75.9915 119.372 75.9411 119.275C75.8944 119.178 75.8207 119.093 75.72 119.021C75.6229 118.949 75.5007 118.892 75.3533 118.849C75.2059 118.806 75.0333 118.784 74.8355 118.784C74.6198 118.784 74.4364 118.806 74.2854 118.849C74.138 118.892 74.0121 118.939 73.9079 118.989C73.8072 119.039 73.7245 119.086 73.6598 119.129C73.5951 119.172 73.5393 119.194 73.4926 119.194C73.4459 119.194 73.4063 119.185 73.3739 119.167C73.3452 119.149 73.3128 119.111 73.2769 119.054L73.0557 118.682ZM82.9332 118.121V123.584H81.9732V119.874C81.9732 119.802 81.9767 119.724 81.9839 119.642C81.9911 119.559 82.0001 119.476 82.0109 119.394C81.9785 119.465 81.9462 119.532 81.9138 119.593C81.8815 119.654 81.8473 119.71 81.8114 119.76L79.1741 123.347C79.1345 123.404 79.0842 123.46 79.023 123.514C78.9655 123.564 78.9008 123.589 78.8289 123.589H78.2464V118.126H79.2118V121.837C79.2118 121.905 79.2082 121.98 79.201 122.063C79.1938 122.142 79.1848 122.223 79.1741 122.306C79.2064 122.238 79.2388 122.175 79.2711 122.117C79.3035 122.056 79.3358 122 79.3682 121.95L82.0055 118.363C82.0451 118.306 82.0954 118.252 82.1565 118.202C82.2176 118.148 82.2842 118.121 82.3561 118.121H82.9332ZM88.9919 118.854H86.8939V123.584H85.9339V118.854H83.8359V118.121H88.9919V118.854ZM93.3426 120.256C93.3426 120.034 93.3103 119.83 93.2456 119.647C93.1844 119.46 93.0928 119.3 92.9705 119.167C92.8519 119.03 92.7062 118.926 92.5337 118.854C92.3611 118.779 92.1651 118.741 91.9458 118.741C91.4856 118.741 91.1206 118.876 90.851 119.145C90.5849 119.411 90.4195 119.782 90.3548 120.256H93.3426ZM94.1193 122.818C94.0006 122.962 93.8586 123.088 93.6932 123.196C93.5278 123.3 93.3498 123.386 93.1593 123.455C92.9723 123.523 92.7782 123.573 92.5768 123.606C92.3755 123.642 92.1759 123.66 91.9782 123.66C91.6006 123.66 91.2519 123.597 90.9319 123.471C90.6155 123.341 90.3404 123.154 90.1067 122.91C89.8766 122.662 89.6968 122.356 89.5674 121.993C89.4379 121.63 89.3732 121.213 89.3732 120.742C89.3732 120.361 89.4307 120.005 89.5458 119.674C89.6644 119.343 89.8334 119.057 90.0528 118.816C90.2721 118.572 90.5399 118.381 90.8564 118.245C91.1728 118.105 91.5287 118.034 91.9242 118.034C92.2514 118.034 92.5534 118.09 92.8303 118.202C93.1107 118.309 93.3516 118.468 93.553 118.676C93.7579 118.881 93.9179 119.136 94.033 119.442C94.148 119.744 94.2056 120.089 94.2056 120.478C94.2056 120.629 94.1894 120.729 94.157 120.78C94.1247 120.83 94.0635 120.855 93.9737 120.855H90.3224C90.3332 121.2 90.3799 121.5 90.4626 121.756C90.5489 122.011 90.6676 122.225 90.8186 122.398C90.9696 122.567 91.1494 122.694 91.3579 122.78C91.5665 122.863 91.8002 122.905 92.0591 122.905C92.2999 122.905 92.5067 122.878 92.6793 122.824C92.8555 122.766 93.0065 122.705 93.1323 122.64C93.2582 122.576 93.3624 122.516 93.4451 122.462C93.5314 122.405 93.6051 122.376 93.6662 122.376C93.7453 122.376 93.8065 122.407 93.8496 122.468L94.1193 122.818ZM101.612 122.931C101.932 122.917 102.215 122.858 102.459 122.754C102.707 122.649 102.914 122.509 103.079 122.333C103.248 122.153 103.374 121.939 103.457 121.691C103.543 121.443 103.586 121.164 103.586 120.855C103.586 120.542 103.543 120.262 103.457 120.014C103.374 119.762 103.248 119.546 103.079 119.367C102.914 119.187 102.707 119.047 102.459 118.946C102.215 118.842 101.931 118.78 101.607 118.762V122.883L101.612 122.931ZM100.76 118.762C100.437 118.78 100.153 118.842 99.9082 118.946C99.6637 119.047 99.4569 119.187 99.288 119.367C99.1226 119.546 98.9967 119.762 98.9104 120.014C98.8277 120.265 98.7864 120.546 98.7864 120.855C98.7864 121.164 98.8277 121.443 98.9104 121.691C98.9967 121.939 99.1226 122.153 99.288 122.333C99.4533 122.509 99.6583 122.649 99.9028 122.754C100.151 122.858 100.435 122.917 100.755 122.931L100.76 122.899V118.762ZM101.639 118.04C102.089 118.058 102.493 118.137 102.853 118.277C103.212 118.417 103.518 118.61 103.77 118.854C104.021 119.099 104.214 119.39 104.347 119.728C104.483 120.062 104.552 120.436 104.552 120.85C104.552 121.263 104.483 121.639 104.347 121.977C104.214 122.311 104.021 122.601 103.77 122.845C103.518 123.086 103.212 123.277 102.853 123.417C102.493 123.557 102.089 123.636 101.639 123.654V125.466H100.733V123.654C100.284 123.636 99.8794 123.557 99.5199 123.417C99.1603 123.277 98.8547 123.086 98.603 122.845C98.3513 122.601 98.1572 122.311 98.0205 121.977C97.8875 121.639 97.821 121.263 97.821 120.85C97.821 120.436 97.8875 120.062 98.0205 119.728C98.1572 119.39 98.3513 119.099 98.603 118.854C98.8547 118.61 99.1603 118.417 99.5199 118.277C99.8794 118.137 100.284 118.058 100.733 118.04V115.856H101.639V118.04ZM108.711 121.125C108.269 121.139 107.891 121.175 107.578 121.233C107.269 121.287 107.016 121.358 106.818 121.448C106.624 121.538 106.482 121.644 106.392 121.767C106.305 121.889 106.262 122.025 106.262 122.176C106.262 122.32 106.286 122.444 106.332 122.549C106.379 122.653 106.442 122.739 106.521 122.807C106.604 122.872 106.699 122.921 106.807 122.953C106.918 122.982 107.037 122.996 107.163 122.996C107.332 122.996 107.487 122.98 107.627 122.948C107.767 122.912 107.898 122.861 108.02 122.797C108.146 122.732 108.265 122.655 108.376 122.565C108.491 122.475 108.603 122.372 108.711 122.257V121.125ZM105.61 118.892C105.912 118.601 106.237 118.383 106.586 118.239C106.935 118.096 107.321 118.024 107.745 118.024C108.051 118.024 108.323 118.074 108.56 118.175C108.797 118.275 108.997 118.416 109.158 118.595C109.32 118.775 109.443 118.993 109.525 119.248C109.608 119.503 109.649 119.784 109.649 120.089V123.584H109.223C109.13 123.584 109.058 123.57 109.007 123.541C108.957 123.509 108.918 123.447 108.889 123.358L108.781 122.84C108.637 122.973 108.497 123.091 108.36 123.196C108.224 123.296 108.08 123.383 107.929 123.455C107.778 123.523 107.616 123.575 107.443 123.611C107.274 123.651 107.086 123.67 106.877 123.67C106.665 123.67 106.465 123.642 106.278 123.584C106.091 123.523 105.928 123.433 105.788 123.314C105.651 123.196 105.541 123.047 105.459 122.867C105.38 122.683 105.34 122.468 105.34 122.22C105.34 122.004 105.399 121.797 105.518 121.599C105.637 121.398 105.829 121.22 106.095 121.065C106.361 120.911 106.708 120.785 107.136 120.688C107.564 120.587 108.089 120.53 108.711 120.515V120.089C108.711 119.665 108.619 119.345 108.436 119.129C108.252 118.91 107.985 118.8 107.632 118.8C107.395 118.8 107.195 118.831 107.034 118.892C106.875 118.949 106.737 119.016 106.618 119.091C106.503 119.163 106.403 119.23 106.316 119.291C106.234 119.349 106.151 119.377 106.068 119.377C106.003 119.377 105.948 119.361 105.901 119.329C105.854 119.293 105.815 119.25 105.782 119.199L105.61 118.892ZM115.798 118.121V123.584H114.838V119.874C114.838 119.802 114.842 119.724 114.849 119.642C114.856 119.559 114.865 119.476 114.876 119.394C114.844 119.465 114.811 119.532 114.779 119.593C114.747 119.654 114.712 119.71 114.677 119.76L112.039 123.347C112 123.404 111.949 123.46 111.888 123.514C111.831 123.564 111.766 123.589 111.694 123.589H111.112V118.126H112.077V121.837C112.077 121.905 112.073 121.98 112.066 122.063C112.059 122.142 112.05 122.223 112.039 122.306C112.072 122.238 112.104 122.175 112.136 122.117C112.169 122.056 112.201 122 112.233 121.95L114.871 118.363C114.91 118.306 114.961 118.252 115.022 118.202C115.083 118.148 115.149 118.121 115.221 118.121H115.798ZM113.517 116.799C113.664 116.799 113.788 116.783 113.889 116.751C113.99 116.715 114.071 116.659 114.132 116.584C114.197 116.508 114.243 116.411 114.272 116.292C114.301 116.174 114.315 116.028 114.315 115.856H114.876C114.944 115.856 114.997 115.886 115.032 115.947C115.068 116.008 115.086 116.075 115.086 116.147C115.086 116.327 115.05 116.488 114.979 116.632C114.907 116.776 114.802 116.9 114.666 117.004C114.533 117.105 114.369 117.182 114.175 117.236C113.981 117.29 113.761 117.317 113.517 117.317C113.272 117.317 113.053 117.29 112.859 117.236C112.665 117.182 112.499 117.105 112.363 117.004C112.23 116.9 112.127 116.776 112.055 116.632C111.983 116.488 111.948 116.327 111.948 116.147C111.948 116.075 111.966 116.008 112.001 115.947C112.037 115.886 112.09 115.856 112.158 115.856H112.719C112.719 116.028 112.733 116.174 112.762 116.292C112.791 116.411 112.836 116.508 112.897 116.584C112.961 116.659 113.044 116.715 113.145 116.751C113.246 116.783 113.37 116.799 113.517 116.799ZM122.105 123.584H121.145V118.876H119.419C119.376 119.57 119.311 120.17 119.225 120.677C119.139 121.18 119.035 121.61 118.912 121.966C118.794 122.318 118.659 122.606 118.508 122.829C118.36 123.048 118.204 123.219 118.039 123.341C117.877 123.464 117.708 123.546 117.532 123.589C117.359 123.633 117.186 123.654 117.014 123.654C116.708 123.654 116.555 123.606 116.555 123.509V122.899H116.836C116.958 122.899 117.082 122.878 117.208 122.834C117.334 122.791 117.456 122.709 117.575 122.586C117.697 122.464 117.814 122.293 117.925 122.074C118.037 121.851 118.138 121.563 118.227 121.211C118.321 120.855 118.4 120.425 118.465 119.922C118.533 119.415 118.585 118.815 118.621 118.121H122.105V123.584ZM131.072 118.121V123.584H130.112V119.874C130.112 119.802 130.116 119.724 130.123 119.642C130.13 119.559 130.139 119.476 130.15 119.394C130.118 119.465 130.085 119.532 130.053 119.593C130.021 119.654 129.986 119.71 129.95 119.76L127.313 123.347C127.274 123.404 127.223 123.46 127.162 123.514C127.105 123.564 127.04 123.589 126.968 123.589H126.385V118.126H127.351V121.837C127.351 121.905 127.347 121.98 127.34 122.063C127.333 122.142 127.324 122.223 127.313 122.306C127.345 122.238 127.378 122.175 127.41 122.117C127.443 122.056 127.475 122 127.507 121.95L130.145 118.363C130.184 118.306 130.234 118.252 130.296 118.202C130.357 118.148 130.423 118.121 130.495 118.121H131.072ZM137.379 123.584H136.419V118.876H134.693C134.65 119.57 134.585 120.17 134.499 120.677C134.413 121.18 134.308 121.61 134.186 121.966C134.068 122.318 133.933 122.606 133.782 122.829C133.634 123.048 133.478 123.219 133.312 123.341C133.151 123.464 132.982 123.546 132.806 123.589C132.633 123.633 132.46 123.654 132.288 123.654C131.982 123.654 131.829 123.606 131.829 123.509V122.899H132.11C132.232 122.899 132.356 122.878 132.482 122.834C132.608 122.791 132.73 122.709 132.849 122.586C132.971 122.464 133.088 122.293 133.199 122.074C133.311 121.851 133.411 121.563 133.501 121.211C133.595 120.855 133.674 120.425 133.739 119.922C133.807 119.415 133.859 118.815 133.895 118.121H137.379V123.584ZM143.586 118.121V123.584H142.626V119.874C142.626 119.802 142.63 119.724 142.637 119.642C142.644 119.559 142.653 119.476 142.664 119.394C142.632 119.465 142.599 119.532 142.567 119.593C142.535 119.654 142.5 119.71 142.464 119.76L139.827 123.347C139.788 123.404 139.737 123.46 139.676 123.514C139.619 123.564 139.554 123.589 139.482 123.589H138.899V118.126H139.865V121.837C139.865 121.905 139.861 121.98 139.854 122.063C139.847 122.142 139.838 122.223 139.827 122.306C139.859 122.238 139.892 122.175 139.924 122.117C139.957 122.056 139.989 122 140.021 121.95L142.659 118.363C142.698 118.306 142.748 118.252 142.81 118.202C142.871 118.148 142.937 118.121 143.009 118.121H143.586ZM152.416 123.584H151.45V118.854H148.829V123.584H147.864V118.121H152.416V123.584ZM157.598 120.256C157.598 120.034 157.566 119.83 157.501 119.647C157.44 119.46 157.348 119.3 157.226 119.167C157.107 119.03 156.962 118.926 156.789 118.854C156.617 118.779 156.421 118.741 156.201 118.741C155.741 118.741 155.376 118.876 155.107 119.145C154.841 119.411 154.675 119.782 154.61 120.256H157.598ZM158.375 122.818C158.256 122.962 158.114 123.088 157.949 123.196C157.783 123.3 157.605 123.386 157.415 123.455C157.228 123.523 157.034 123.573 156.832 123.606C156.631 123.642 156.432 123.66 156.234 123.66C155.856 123.66 155.507 123.597 155.187 123.471C154.871 123.341 154.596 123.154 154.362 122.91C154.132 122.662 153.952 122.356 153.823 121.993C153.694 121.63 153.629 121.213 153.629 120.742C153.629 120.361 153.686 120.005 153.801 119.674C153.92 119.343 154.089 119.057 154.308 118.816C154.528 118.572 154.796 118.381 155.112 118.245C155.428 118.105 155.784 118.034 156.18 118.034C156.507 118.034 156.809 118.09 157.086 118.202C157.366 118.309 157.607 118.468 157.809 118.676C158.014 118.881 158.174 119.136 158.289 119.442C158.404 119.744 158.461 120.089 158.461 120.478C158.461 120.629 158.445 120.729 158.413 120.78C158.38 120.83 158.319 120.855 158.229 120.855H154.578C154.589 121.2 154.636 121.5 154.718 121.756C154.805 122.011 154.923 122.225 155.074 122.398C155.225 122.567 155.405 122.694 155.614 122.78C155.822 122.863 156.056 122.905 156.315 122.905C156.556 122.905 156.762 122.878 156.935 122.824C157.111 122.766 157.262 122.705 157.388 122.64C157.514 122.576 157.618 122.516 157.701 122.462C157.787 122.405 157.861 122.376 157.922 122.376C158.001 122.376 158.062 122.407 158.105 122.468L158.375 122.818ZM160.606 122.268C160.782 122.505 160.974 122.673 161.183 122.77C161.391 122.867 161.625 122.915 161.884 122.915C162.395 122.915 162.786 122.734 163.06 122.371C163.333 122.007 163.47 121.49 163.47 120.817C163.47 120.461 163.437 120.156 163.372 119.9C163.311 119.645 163.221 119.437 163.103 119.275C162.984 119.109 162.839 118.989 162.666 118.914C162.493 118.838 162.297 118.8 162.078 118.8C161.765 118.8 161.49 118.872 161.253 119.016C161.019 119.16 160.804 119.363 160.606 119.625V122.268ZM160.557 118.967C160.787 118.683 161.053 118.455 161.355 118.282C161.657 118.11 162.003 118.024 162.391 118.024C162.707 118.024 162.993 118.085 163.248 118.207C163.504 118.326 163.721 118.504 163.901 118.741C164.081 118.975 164.219 119.266 164.316 119.615C164.413 119.963 164.462 120.364 164.462 120.817C164.462 121.22 164.408 121.596 164.3 121.945C164.192 122.29 164.036 122.59 163.831 122.845C163.63 123.097 163.381 123.296 163.087 123.444C162.795 123.588 162.466 123.66 162.1 123.66C161.765 123.66 161.478 123.604 161.237 123.492C160.999 123.377 160.789 123.219 160.606 123.018V125.434H159.64V118.121H160.217C160.354 118.121 160.439 118.187 160.471 118.32L160.557 118.967ZM169.333 120.256C169.333 120.034 169.3 119.83 169.236 119.647C169.175 119.46 169.083 119.3 168.961 119.167C168.842 119.03 168.696 118.926 168.524 118.854C168.351 118.779 168.155 118.741 167.936 118.741C167.476 118.741 167.111 118.876 166.841 119.145C166.575 119.411 166.41 119.782 166.345 120.256H169.333ZM170.109 122.818C169.991 122.962 169.849 123.088 169.683 123.196C169.518 123.3 169.34 123.386 169.149 123.455C168.962 123.523 168.768 123.573 168.567 123.606C168.366 123.642 168.166 123.66 167.968 123.66C167.591 123.66 167.242 123.597 166.922 123.471C166.606 123.341 166.331 123.154 166.097 122.91C165.867 122.662 165.687 122.356 165.558 121.993C165.428 121.63 165.363 121.213 165.363 120.742C165.363 120.361 165.421 120.005 165.536 119.674C165.655 119.343 165.824 119.057 166.043 118.816C166.262 118.572 166.53 118.381 166.847 118.245C167.163 118.105 167.519 118.034 167.914 118.034C168.242 118.034 168.544 118.09 168.82 118.202C169.101 118.309 169.342 118.468 169.543 118.676C169.748 118.881 169.908 119.136 170.023 119.442C170.138 119.744 170.196 120.089 170.196 120.478C170.196 120.629 170.18 120.729 170.147 120.78C170.115 120.83 170.054 120.855 169.964 120.855H166.313C166.323 121.2 166.37 121.5 166.453 121.756C166.539 122.011 166.658 122.225 166.809 122.398C166.96 122.567 167.14 122.694 167.348 122.78C167.557 122.863 167.79 122.905 168.049 122.905C168.29 122.905 168.497 122.878 168.669 122.824C168.846 122.766 168.997 122.705 169.122 122.64C169.248 122.576 169.353 122.516 169.435 122.462C169.522 122.405 169.595 122.376 169.656 122.376C169.736 122.376 169.797 122.407 169.84 122.468L170.109 122.818ZM175.832 118.854H173.734V123.584H172.774V118.854H170.676V118.121H175.832V118.854ZM179.655 121.125C179.213 121.139 178.836 121.175 178.523 121.233C178.214 121.287 177.96 121.358 177.762 121.448C177.568 121.538 177.426 121.644 177.336 121.767C177.25 121.889 177.207 122.025 177.207 122.176C177.207 122.32 177.23 122.444 177.277 122.549C177.324 122.653 177.387 122.739 177.466 122.807C177.548 122.872 177.644 122.921 177.752 122.953C177.863 122.982 177.982 122.996 178.107 122.996C178.276 122.996 178.431 122.98 178.571 122.948C178.712 122.912 178.843 122.861 178.965 122.797C179.091 122.732 179.209 122.655 179.321 122.565C179.436 122.475 179.547 122.372 179.655 122.257V121.125ZM176.554 118.892C176.856 118.601 177.182 118.383 177.53 118.239C177.879 118.096 178.266 118.024 178.69 118.024C178.996 118.024 179.267 118.074 179.504 118.175C179.742 118.275 179.941 118.416 180.103 118.595C180.265 118.775 180.387 118.993 180.47 119.248C180.552 119.503 180.594 119.784 180.594 120.089V123.584H180.168C180.074 123.584 180.002 123.57 179.952 123.541C179.902 123.509 179.862 123.447 179.833 123.358L179.725 122.84C179.582 122.973 179.441 123.091 179.305 123.196C179.168 123.296 179.024 123.383 178.873 123.455C178.722 123.523 178.561 123.575 178.388 123.611C178.219 123.651 178.03 123.67 177.822 123.67C177.609 123.67 177.41 123.642 177.223 123.584C177.036 123.523 176.872 123.433 176.732 123.314C176.596 123.196 176.486 123.047 176.403 122.867C176.324 122.683 176.285 122.468 176.285 122.22C176.285 122.004 176.344 121.797 176.463 121.599C176.581 121.398 176.774 121.22 177.04 121.065C177.306 120.911 177.653 120.785 178.081 120.688C178.508 120.587 179.033 120.53 179.655 120.515V120.089C179.655 119.665 179.564 119.345 179.38 119.129C179.197 118.91 178.929 118.8 178.577 118.8C178.339 118.8 178.14 118.831 177.978 118.892C177.82 118.949 177.681 119.016 177.563 119.091C177.448 119.163 177.347 119.23 177.261 119.291C177.178 119.349 177.095 119.377 177.013 119.377C176.948 119.377 176.892 119.361 176.845 119.329C176.799 119.293 176.759 119.25 176.727 119.199L176.554 118.892ZM190.41 122.856V125.17C190.41 125.263 190.383 125.335 190.329 125.385C190.279 125.439 190.212 125.466 190.13 125.466H189.537V123.584H182.056V118.121H183.021V122.856H185.249V118.121H186.214V122.856H188.442V118.121H189.407V122.856H190.41ZM196.065 118.121V123.584H195.105V119.874C195.105 119.802 195.109 119.724 195.116 119.642C195.123 119.559 195.132 119.476 195.143 119.394C195.111 119.465 195.078 119.532 195.046 119.593C195.013 119.654 194.979 119.71 194.943 119.76L192.306 123.347C192.267 123.404 192.216 123.46 192.155 123.514C192.098 123.564 192.033 123.589 191.961 123.589H191.378V118.126H192.344V121.837C192.344 121.905 192.34 121.98 192.333 122.063C192.326 122.142 192.317 122.223 192.306 122.306C192.338 122.238 192.371 122.175 192.403 122.117C192.436 122.056 192.468 122 192.5 121.95L195.138 118.363C195.177 118.306 195.227 118.252 195.289 118.202C195.35 118.148 195.416 118.121 195.488 118.121H196.065ZM202.124 118.854H200.026V123.584H199.066V118.854H196.968V118.121H202.124V118.854ZM206.475 120.256C206.475 120.034 206.442 119.83 206.378 119.647C206.316 119.46 206.225 119.3 206.103 119.167C205.984 119.03 205.838 118.926 205.666 118.854C205.493 118.779 205.297 118.741 205.078 118.741C204.618 118.741 204.253 118.876 203.983 119.145C203.717 119.411 203.552 119.782 203.487 120.256H206.475ZM207.251 122.818C207.133 122.962 206.991 123.088 206.825 123.196C206.66 123.3 206.482 123.386 206.291 123.455C206.104 123.523 205.91 123.573 205.709 123.606C205.507 123.642 205.308 123.66 205.11 123.66C204.733 123.66 204.384 123.597 204.064 123.471C203.747 123.341 203.472 123.154 203.239 122.91C203.009 122.662 202.829 122.356 202.699 121.993C202.57 121.63 202.505 121.213 202.505 120.742C202.505 120.361 202.563 120.005 202.678 119.674C202.796 119.343 202.965 119.057 203.185 118.816C203.404 118.572 203.672 118.381 203.988 118.245C204.305 118.105 204.661 118.034 205.056 118.034C205.383 118.034 205.685 118.09 205.962 118.202C206.243 118.309 206.484 118.468 206.685 118.676C206.89 118.881 207.05 119.136 207.165 119.442C207.28 119.744 207.338 120.089 207.338 120.478C207.338 120.629 207.321 120.729 207.289 120.78C207.257 120.83 207.196 120.855 207.106 120.855H203.454C203.465 121.2 203.512 121.5 203.595 121.756C203.681 122.011 203.8 122.225 203.951 122.398C204.102 122.567 204.281 122.694 204.49 122.78C204.698 122.863 204.932 122.905 205.191 122.905C205.432 122.905 205.639 122.878 205.811 122.824C205.987 122.766 206.138 122.705 206.264 122.64C206.39 122.576 206.494 122.516 206.577 122.462C206.663 122.405 206.737 122.376 206.798 122.376C206.877 122.376 206.938 122.407 206.982 122.468L207.251 122.818ZM214.933 120.256C214.933 120.034 214.901 119.83 214.836 119.647C214.775 119.46 214.683 119.3 214.561 119.167C214.442 119.03 214.297 118.926 214.124 118.854C213.952 118.779 213.756 118.741 213.536 118.741C213.076 118.741 212.711 118.876 212.442 119.145C212.175 119.411 212.01 119.782 211.945 120.256H214.933ZM215.71 122.818C215.591 122.962 215.449 123.088 215.284 123.196C215.118 123.3 214.94 123.386 214.75 123.455C214.563 123.523 214.369 123.573 214.167 123.606C213.966 123.642 213.766 123.66 213.569 123.66C213.191 123.66 212.842 123.597 212.522 123.471C212.206 123.341 211.931 123.154 211.697 122.91C211.467 122.662 211.287 122.356 211.158 121.993C211.029 121.63 210.964 121.213 210.964 120.742C210.964 120.361 211.021 120.005 211.136 119.674C211.255 119.343 211.424 119.057 211.643 118.816C211.863 118.572 212.131 118.381 212.447 118.245C212.763 118.105 213.119 118.034 213.515 118.034C213.842 118.034 214.144 118.09 214.421 118.202C214.701 118.309 214.942 118.468 215.144 118.676C215.349 118.881 215.509 119.136 215.624 119.442C215.739 119.744 215.796 120.089 215.796 120.478C215.796 120.629 215.78 120.729 215.748 120.78C215.715 120.83 215.654 120.855 215.564 120.855H211.913C211.924 121.2 211.971 121.5 212.053 121.756C212.14 122.011 212.258 122.225 212.409 122.398C212.56 122.567 212.74 122.694 212.949 122.78C213.157 122.863 213.391 122.905 213.65 122.905C213.891 122.905 214.097 122.878 214.27 122.824C214.446 122.766 214.597 122.705 214.723 122.64C214.849 122.576 214.953 122.516 215.036 122.462C215.122 122.405 215.196 122.376 215.257 122.376C215.336 122.376 215.397 122.407 215.44 122.468L215.71 122.818ZM220.519 118.854H217.941V123.584H216.975V118.121H220.519V118.854ZM223.471 118.034C223.87 118.034 224.229 118.101 224.549 118.234C224.869 118.367 225.143 118.556 225.369 118.8C225.596 119.045 225.768 119.341 225.887 119.69C226.009 120.035 226.07 120.422 226.07 120.85C226.07 121.281 226.009 121.669 225.887 122.015C225.768 122.36 225.596 122.655 225.369 122.899C225.143 123.144 224.869 123.332 224.549 123.465C224.229 123.595 223.87 123.66 223.471 123.66C223.068 123.66 222.705 123.595 222.381 123.465C222.061 123.332 221.788 123.144 221.561 122.899C221.335 122.655 221.161 122.36 221.038 122.015C220.92 121.669 220.86 121.281 220.86 120.85C220.86 120.422 220.92 120.035 221.038 119.69C221.161 119.341 221.335 119.045 221.561 118.8C221.788 118.556 222.061 118.367 222.381 118.234C222.705 118.101 223.068 118.034 223.471 118.034ZM223.471 122.91C224.01 122.91 224.413 122.73 224.679 122.371C224.945 122.007 225.078 121.502 225.078 120.855C225.078 120.204 224.945 119.697 224.679 119.334C224.413 118.971 224.01 118.789 223.471 118.789C223.197 118.789 222.958 118.836 222.753 118.93C222.552 119.023 222.383 119.158 222.246 119.334C222.113 119.51 222.013 119.728 221.944 119.987C221.88 120.242 221.847 120.531 221.847 120.855C221.847 121.502 221.98 122.007 222.246 122.371C222.516 122.73 222.924 122.91 223.471 122.91ZM233.85 119.091C233.821 119.131 233.792 119.162 233.764 119.183C233.735 119.205 233.695 119.216 233.645 119.216C233.591 119.216 233.532 119.194 233.467 119.151C233.402 119.104 233.321 119.054 233.224 119C233.131 118.946 233.014 118.897 232.874 118.854C232.737 118.807 232.568 118.784 232.367 118.784C232.097 118.784 231.86 118.833 231.655 118.93C231.45 119.023 231.277 119.16 231.137 119.34C231 119.519 230.896 119.737 230.824 119.992C230.756 120.247 230.722 120.533 230.722 120.85C230.722 121.18 230.76 121.475 230.835 121.734C230.911 121.989 231.017 122.205 231.153 122.381C231.294 122.554 231.461 122.687 231.655 122.78C231.853 122.87 232.074 122.915 232.318 122.915C232.552 122.915 232.744 122.888 232.895 122.834C233.046 122.777 233.17 122.714 233.267 122.646C233.368 122.577 233.451 122.516 233.516 122.462C233.584 122.405 233.65 122.376 233.715 122.376C233.794 122.376 233.855 122.407 233.898 122.468L234.168 122.818C234.049 122.966 233.915 123.091 233.764 123.196C233.613 123.3 233.449 123.388 233.273 123.46C233.1 123.528 232.919 123.579 232.728 123.611C232.538 123.643 232.343 123.66 232.146 123.66C231.804 123.66 231.486 123.597 231.191 123.471C230.9 123.345 230.646 123.163 230.431 122.926C230.215 122.685 230.046 122.39 229.924 122.042C229.801 121.693 229.74 121.296 229.74 120.85C229.74 120.443 229.796 120.068 229.907 119.722C230.022 119.377 230.188 119.081 230.404 118.833C230.623 118.581 230.891 118.385 231.207 118.245C231.527 118.105 231.894 118.034 232.307 118.034C232.692 118.034 233.03 118.097 233.321 118.223C233.616 118.345 233.877 118.52 234.103 118.746L233.85 119.091ZM239.934 122.91C240.437 122.91 240.813 122.73 241.061 122.371C241.309 122.007 241.433 121.502 241.433 120.855C241.433 120.204 241.309 119.697 241.061 119.334C240.813 118.971 240.437 118.789 239.934 118.789C239.431 118.789 239.055 118.971 238.807 119.334C238.559 119.697 238.435 120.204 238.435 120.855C238.435 121.502 238.559 122.007 238.807 122.371C239.055 122.73 239.431 122.91 239.934 122.91ZM237.491 120.478C237.523 120.104 237.6 119.766 237.723 119.464C237.849 119.162 238.016 118.905 238.224 118.692C238.436 118.48 238.684 118.318 238.969 118.207C239.256 118.092 239.578 118.034 239.934 118.034C240.315 118.034 240.658 118.101 240.964 118.234C241.273 118.367 241.536 118.556 241.751 118.8C241.967 119.045 242.133 119.341 242.248 119.69C242.366 120.035 242.426 120.422 242.426 120.85C242.426 121.281 242.366 121.669 242.248 122.015C242.129 122.36 241.96 122.655 241.741 122.899C241.521 123.144 241.259 123.332 240.953 123.465C240.648 123.595 240.308 123.66 239.934 123.66C239.571 123.66 239.244 123.602 238.952 123.487C238.665 123.372 238.417 123.208 238.208 122.996C238 122.78 237.832 122.52 237.707 122.214C237.584 121.909 237.511 121.563 237.485 121.179H236.164V123.584H235.199V118.121H236.164V120.478H237.491ZM247.2 122.883V118.876H245.469C245.433 119.437 245.383 119.933 245.318 120.364C245.254 120.796 245.178 121.175 245.092 121.502C245.009 121.826 244.916 122.101 244.811 122.327C244.711 122.554 244.605 122.739 244.493 122.883H247.2ZM249.131 122.856V125.17C249.131 125.263 249.104 125.335 249.05 125.385C249 125.439 248.934 125.466 248.851 125.466H248.263V123.584H243.668V125.191C243.668 125.26 243.646 125.322 243.603 125.38C243.564 125.438 243.497 125.466 243.404 125.466H242.8V122.883H242.978C243.103 122.883 243.227 122.861 243.35 122.818C243.476 122.775 243.596 122.694 243.711 122.576C243.826 122.453 243.934 122.282 244.035 122.063C244.139 121.844 244.232 121.558 244.315 121.206C244.398 120.853 244.47 120.425 244.531 119.922C244.592 119.415 244.64 118.815 244.676 118.121H248.134V122.856H249.131ZM253.065 121.125C252.623 121.139 252.245 121.175 251.932 121.233C251.623 121.287 251.369 121.358 251.172 121.448C250.978 121.538 250.836 121.644 250.746 121.767C250.659 121.889 250.616 122.025 250.616 122.176C250.616 122.32 250.64 122.444 250.686 122.549C250.733 122.653 250.796 122.739 250.875 122.807C250.958 122.872 251.053 122.921 251.161 122.953C251.272 122.982 251.391 122.996 251.517 122.996C251.686 122.996 251.84 122.98 251.981 122.948C252.121 122.912 252.252 122.861 252.374 122.797C252.5 122.732 252.619 122.655 252.73 122.565C252.845 122.475 252.957 122.372 253.065 122.257V121.125ZM249.964 118.892C250.266 118.601 250.591 118.383 250.94 118.239C251.289 118.096 251.675 118.024 252.099 118.024C252.405 118.024 252.676 118.074 252.914 118.175C253.151 118.275 253.351 118.416 253.512 118.595C253.674 118.775 253.796 118.993 253.879 119.248C253.962 119.503 254.003 119.784 254.003 120.089V123.584H253.577C253.484 123.584 253.412 123.57 253.361 123.541C253.311 123.509 253.271 123.447 253.243 123.358L253.135 122.84C252.991 122.973 252.851 123.091 252.714 123.196C252.578 123.296 252.434 123.383 252.283 123.455C252.132 123.523 251.97 123.575 251.797 123.611C251.628 123.651 251.44 123.67 251.231 123.67C251.019 123.67 250.819 123.642 250.632 123.584C250.445 123.523 250.282 123.433 250.142 123.314C250.005 123.196 249.895 123.047 249.813 122.867C249.734 122.683 249.694 122.468 249.694 122.22C249.694 122.004 249.753 121.797 249.872 121.599C249.991 121.398 250.183 121.22 250.449 121.065C250.715 120.911 251.062 120.785 251.49 120.688C251.918 120.587 252.443 120.53 253.065 120.515V120.089C253.065 119.665 252.973 119.345 252.79 119.129C252.606 118.91 252.338 118.8 251.986 118.8C251.749 118.8 251.549 118.831 251.387 118.892C251.229 118.949 251.091 119.016 250.972 119.091C250.857 119.163 250.756 119.23 250.67 119.291C250.587 119.349 250.505 119.377 250.422 119.377C250.357 119.377 250.302 119.361 250.255 119.329C250.208 119.293 250.169 119.25 250.136 119.199L249.964 118.892Z" fill="#0F0F0F"/>
<path d="M49.5449 144.505V138.802H54.3179V144.505H53.6464V139.368H50.2002V144.505H49.5449ZM57.3649 144.578C56.9766 144.578 56.6369 144.495 56.3456 144.327C56.0598 144.155 55.8387 143.912 55.6823 143.599C55.5258 143.281 55.4476 142.906 55.4476 142.475C55.4476 142.038 55.5258 141.663 55.6823 141.35C55.8387 141.038 56.0598 140.798 56.3456 140.63C56.6369 140.458 56.9766 140.372 57.3649 140.372C57.7587 140.372 58.0984 140.458 58.3843 140.63C58.6755 140.798 58.8993 141.038 59.0557 141.35C59.2175 141.663 59.2984 142.038 59.2984 142.475C59.2984 142.906 59.2175 143.281 59.0557 143.599C58.8993 143.912 58.6755 144.155 58.3843 144.327C58.0984 144.495 57.7587 144.578 57.3649 144.578ZM57.3649 144.044C57.7533 144.044 58.0607 143.912 58.2872 143.648C58.5137 143.378 58.627 142.987 58.627 142.475C58.627 141.957 58.511 141.566 58.2791 141.302C58.0526 141.032 57.7479 140.897 57.3649 140.897C56.982 140.897 56.6773 141.032 56.4508 141.302C56.2243 141.566 56.111 141.957 56.111 142.475C56.111 142.987 56.2243 143.378 56.4508 143.648C56.6773 143.912 56.982 144.044 57.3649 144.044ZM59.938 145.557V143.988H60.3667C60.5609 143.713 60.7011 143.384 60.7874 143.001C60.8737 142.618 60.9169 142.165 60.9169 141.642V140.444H63.7726V143.988H64.4117V145.557H63.8454V144.505H60.4962V145.557H59.938ZM60.9977 143.996H63.1497V140.954H61.4912V141.747C61.4912 142.173 61.4481 142.585 61.3618 142.985C61.2809 143.378 61.1595 143.715 60.9977 143.996ZM64.8598 145.557V143.988H65.2886C65.4828 143.713 65.623 143.384 65.7093 143.001C65.7956 142.618 65.8387 142.165 65.8387 141.642V140.444H68.6945V143.988H69.3336V145.557H68.7673V144.505H65.4181V145.557H64.8598ZM65.9196 143.996H68.0715V140.954H66.4131V141.747C66.4131 142.173 66.37 142.585 66.2837 142.985C66.2028 143.378 66.0814 143.715 65.9196 143.996ZM72.0469 144.578C71.4105 144.578 70.9089 144.395 70.5422 144.028C70.1754 143.656 69.9921 143.141 69.9921 142.483C69.9921 142.057 70.073 141.687 70.2348 141.375C70.3966 141.056 70.6231 140.811 70.9143 140.638C71.2055 140.461 71.5399 140.372 71.9175 140.372C72.2896 140.372 72.6024 140.45 72.8559 140.606C73.1094 140.763 73.3035 140.986 73.4384 141.278C73.5732 141.563 73.6406 141.903 73.6406 142.297V142.54H70.4936V142.127H73.2118L73.0743 142.232C73.0743 141.801 72.9772 141.464 72.7831 141.221C72.5889 140.978 72.3004 140.857 71.9175 140.857C71.513 140.857 71.1975 141 70.9709 141.286C70.7444 141.566 70.6312 141.946 70.6312 142.426V142.499C70.6312 143.006 70.7552 143.392 71.0033 143.656C71.2568 143.915 71.61 144.044 72.0631 144.044C72.3058 144.044 72.5323 144.009 72.7426 143.939C72.9584 143.864 73.1633 143.742 73.3575 143.575L73.584 144.036C73.406 144.209 73.1795 144.344 72.9044 144.441C72.6348 144.532 72.3489 144.578 72.0469 144.578ZM74.7223 146.253V141.383C74.7223 141.232 74.7142 141.078 74.698 140.922C74.6872 140.76 74.6738 140.601 74.6576 140.444H75.2886L75.3776 141.407H75.2805C75.3668 141.089 75.5421 140.838 75.8064 140.655C76.0706 140.466 76.3861 140.372 76.7529 140.372C77.1196 140.372 77.4351 140.455 77.6994 140.622C77.969 140.79 78.1794 141.03 78.3304 141.342C78.4814 141.655 78.5569 142.033 78.5569 142.475C78.5569 142.912 78.4814 143.287 78.3304 143.599C78.1848 143.912 77.9771 144.155 77.7075 144.327C77.4378 144.495 77.1196 144.578 76.7529 144.578C76.3915 144.578 76.0787 144.487 75.8144 144.303C75.5502 144.12 75.3749 143.869 75.2886 143.551H75.3776V146.253H74.7223ZM76.6234 144.044C77.0117 144.044 77.3192 143.912 77.5457 143.648C77.7776 143.378 77.8935 142.987 77.8935 142.475C77.8935 141.957 77.7776 141.566 77.5457 141.302C77.3192 141.032 77.0117 140.897 76.6234 140.897C76.2405 140.897 75.9331 141.032 75.7012 141.302C75.4747 141.566 75.3614 141.957 75.3614 142.475C75.3614 142.987 75.4747 143.378 75.7012 143.648C75.9331 143.912 76.2405 144.044 76.6234 144.044ZM78.9885 144.505L79.8299 143.082C79.9593 142.871 80.0753 142.707 80.1777 142.588C80.2802 142.47 80.3881 142.381 80.5013 142.321C80.62 142.262 80.7548 142.224 80.9058 142.208L80.744 142.41L79.1989 140.444H79.9189L81.2699 142.151H81.9251V140.444H82.5804V142.151H83.2276L84.5705 140.444H85.2986L83.7454 142.41L83.5755 142.208C83.7319 142.224 83.8667 142.262 83.98 142.321C84.0986 142.381 84.2119 142.47 84.3198 142.588C84.4276 142.707 84.5436 142.871 84.6676 143.082L85.5009 144.505H84.7971L84.0528 143.243C83.9611 143.087 83.8721 142.968 83.7858 142.887C83.7049 142.807 83.6132 142.75 83.5108 142.718C83.4083 142.685 83.2789 142.669 83.1225 142.669H82.5804V144.505H81.9251V142.669H81.375C81.2186 142.669 81.0892 142.685 80.9867 142.718C80.8843 142.75 80.7899 142.807 80.7036 142.887C80.6227 142.968 80.5364 143.087 80.4447 143.243L79.7004 144.505H78.9885ZM86.1612 144.505V140.444H86.7598V143.899H86.5414L89.1301 140.444H89.6803V144.505H89.0897V141.043H89.3081L86.7194 144.505H86.1612ZM90.9724 144.505V140.444H92.9302C93.3994 140.444 93.75 140.536 93.9819 140.719C94.2192 140.897 94.3378 141.162 94.3378 141.512C94.3378 141.771 94.2461 141.99 94.0628 142.167C93.8848 142.34 93.6529 142.443 93.367 142.475V142.378C93.7014 142.389 93.9684 142.486 94.1679 142.669C94.3675 142.852 94.4673 143.09 94.4673 143.381C94.4673 143.732 94.3378 144.007 94.0789 144.206C93.8255 144.406 93.4641 144.505 92.9949 144.505H90.9724ZM91.5953 144.061H92.9625C93.2484 144.061 93.4668 144.001 93.6178 143.883C93.7742 143.758 93.8524 143.583 93.8524 143.357C93.8524 143.13 93.7742 142.958 93.6178 142.839C93.4668 142.72 93.2484 142.661 92.9625 142.661H91.5953V144.061ZM91.5953 142.216H92.8897C93.154 142.216 93.3589 142.157 93.5046 142.038C93.6502 141.919 93.723 141.755 93.723 141.545C93.723 141.334 93.6502 141.172 93.5046 141.059C93.3589 140.941 93.154 140.881 92.8897 140.881H91.5953V142.216ZM97.061 144.578C96.6997 144.578 96.3842 144.495 96.1145 144.327C95.8448 144.155 95.6345 143.912 95.4835 143.599C95.3379 143.287 95.2651 142.912 95.2651 142.475C95.2651 142.033 95.3379 141.655 95.4835 141.342C95.6345 141.03 95.8448 140.79 96.1145 140.622C96.3842 140.455 96.6997 140.372 97.061 140.372C97.4278 140.372 97.7433 140.466 98.0075 140.655C98.2772 140.838 98.4552 141.089 98.5415 141.407H98.4444L98.5334 140.444H99.1644C99.1482 140.601 99.132 140.76 99.1158 140.922C99.1051 141.078 99.0997 141.232 99.0997 141.383V144.505H98.4444V143.551H98.5334C98.4471 143.869 98.2691 144.12 97.9994 144.303C97.7298 144.487 97.417 144.578 97.061 144.578ZM97.1904 144.044C97.5788 144.044 97.8862 143.912 98.1127 143.648C98.3392 143.378 98.4525 142.987 98.4525 142.475C98.4525 141.957 98.3392 141.566 98.1127 141.302C97.8862 141.032 97.5788 140.897 97.1904 140.897C96.8075 140.897 96.5001 141.032 96.2682 141.302C96.0417 141.566 95.9284 141.957 95.9284 142.475C95.9284 142.987 96.0417 143.378 96.2682 143.648C96.5001 143.912 96.8075 144.044 97.1904 144.044ZM102.258 144.578C101.621 144.578 101.12 144.395 100.753 144.028C100.386 143.656 100.203 143.141 100.203 142.483C100.203 142.057 100.284 141.687 100.445 141.375C100.607 141.056 100.834 140.811 101.125 140.638C101.416 140.461 101.751 140.372 102.128 140.372C102.5 140.372 102.813 140.45 103.067 140.606C103.32 140.763 103.514 140.986 103.649 141.278C103.784 141.563 103.851 141.903 103.851 142.297V142.54H100.704V142.127H103.423L103.285 142.232C103.285 141.801 103.188 141.464 102.994 141.221C102.8 140.978 102.511 140.857 102.128 140.857C101.724 140.857 101.408 141 101.182 141.286C100.955 141.566 100.842 141.946 100.842 142.426V142.499C100.842 143.006 100.966 143.392 101.214 143.656C101.467 143.915 101.821 144.044 102.274 144.044C102.516 144.044 102.743 144.009 102.953 143.939C103.169 143.864 103.374 143.742 103.568 143.575L103.795 144.036C103.617 144.209 103.39 144.344 103.115 144.441C102.845 144.532 102.56 144.578 102.258 144.578ZM104.901 144.505V140.444H105.451L106.972 143.171L108.501 140.444H109.051V144.505H108.468V141.172H108.638L107.142 143.85H106.81L105.305 141.164H105.483V144.505H104.901ZM110.344 144.505V140.444H110.999V141.901H112.221C112.744 141.901 113.138 142.014 113.402 142.24C113.672 142.461 113.806 142.777 113.806 143.187C113.806 143.462 113.744 143.699 113.62 143.899C113.502 144.093 113.324 144.244 113.086 144.352C112.854 144.454 112.566 144.505 112.221 144.505H110.344ZM110.999 144.036H112.164C112.493 144.036 112.744 143.969 112.916 143.834C113.089 143.694 113.175 143.481 113.175 143.195C113.175 142.909 113.089 142.701 112.916 142.572C112.749 142.437 112.499 142.37 112.164 142.37H110.999V144.036ZM114.421 144.505V140.444H115.068V144.505H114.421ZM118.2 144.578C117.564 144.578 117.062 144.395 116.696 144.028C116.329 143.656 116.145 143.141 116.145 142.483C116.145 142.057 116.226 141.687 116.388 141.375C116.55 141.056 116.777 140.811 117.068 140.638C117.359 140.461 117.693 140.372 118.071 140.372C118.443 140.372 118.756 140.45 119.009 140.606C119.263 140.763 119.457 140.986 119.592 141.278C119.727 141.563 119.794 141.903 119.794 142.297V142.54H116.647V142.127H119.365L119.228 142.232C119.228 141.801 119.131 141.464 118.937 141.221C118.742 140.978 118.454 140.857 118.071 140.857C117.666 140.857 117.351 141 117.124 141.286C116.898 141.566 116.785 141.946 116.785 142.426V142.499C116.785 143.006 116.909 143.392 117.157 143.656C117.41 143.915 117.763 144.044 118.217 144.044C118.459 144.044 118.686 144.009 118.896 143.939C119.112 143.864 119.317 143.742 119.511 143.575L119.737 144.036C119.559 144.209 119.333 144.344 119.058 144.441C118.788 144.532 118.502 144.578 118.2 144.578ZM125.283 146.253V143.599H125.364C125.277 143.912 125.134 144.155 124.935 144.327C124.741 144.495 124.493 144.578 124.191 144.578C123.899 144.578 123.643 144.492 123.422 144.319C123.206 144.147 123.036 143.904 122.912 143.591C122.788 143.273 122.726 142.901 122.726 142.475C122.726 142.043 122.786 141.671 122.904 141.358C123.028 141.04 123.198 140.798 123.414 140.63C123.635 140.458 123.894 140.372 124.191 140.372C124.493 140.372 124.741 140.458 124.935 140.63C125.134 140.798 125.277 141.035 125.364 141.342H125.283V138.551H125.938V141.342H125.849C125.935 141.035 126.078 140.798 126.278 140.63C126.483 140.458 126.731 140.372 127.022 140.372C127.319 140.372 127.575 140.458 127.791 140.63C128.012 140.798 128.182 141.04 128.3 141.358C128.424 141.671 128.486 142.043 128.486 142.475C128.486 142.901 128.424 143.273 128.3 143.591C128.182 143.904 128.012 144.147 127.791 144.319C127.575 144.492 127.319 144.578 127.022 144.578C126.731 144.578 126.485 144.495 126.286 144.327C126.086 144.155 125.941 143.912 125.849 143.599H125.938V146.253H125.283ZM124.336 144.061C124.633 144.061 124.865 143.926 125.032 143.656C125.204 143.386 125.291 142.993 125.291 142.475C125.291 141.963 125.204 141.572 125.032 141.302C124.865 141.027 124.633 140.889 124.336 140.889C124.039 140.889 123.805 141.027 123.632 141.302C123.465 141.572 123.382 141.963 123.382 142.475C123.382 142.993 123.465 143.386 123.632 143.656C123.805 143.926 124.039 144.061 124.336 144.061ZM126.876 144.061C127.173 144.061 127.408 143.926 127.58 143.656C127.753 143.386 127.839 142.993 127.839 142.475C127.839 141.963 127.75 141.572 127.572 141.302C127.399 141.027 127.168 140.889 126.876 140.889C126.58 140.889 126.345 141.027 126.173 141.302C126.005 141.572 125.922 141.963 125.922 142.475C125.922 142.993 126.005 143.386 126.173 143.656C126.345 143.926 126.58 144.061 126.876 144.061ZM131.264 144.578C130.876 144.578 130.536 144.495 130.245 144.327C129.959 144.155 129.738 143.912 129.581 143.599C129.425 143.281 129.347 142.906 129.347 142.475C129.347 142.038 129.425 141.663 129.581 141.35C129.738 141.038 129.959 140.798 130.245 140.63C130.536 140.458 130.876 140.372 131.264 140.372C131.658 140.372 131.998 140.458 132.283 140.63C132.575 140.798 132.799 141.038 132.955 141.35C133.117 141.663 133.198 142.038 133.198 142.475C133.198 142.906 133.117 143.281 132.955 143.599C132.799 143.912 132.575 144.155 132.283 144.327C131.998 144.495 131.658 144.578 131.264 144.578ZM131.264 144.044C131.652 144.044 131.96 143.912 132.186 143.648C132.413 143.378 132.526 142.987 132.526 142.475C132.526 141.957 132.41 141.566 132.178 141.302C131.952 141.032 131.647 140.897 131.264 140.897C130.881 140.897 130.577 141.032 130.35 141.302C130.123 141.566 130.01 141.957 130.01 142.475C130.01 142.987 130.123 143.378 130.35 143.648C130.577 143.912 130.881 144.044 131.264 144.044ZM134.298 146.253V141.383C134.298 141.232 134.29 141.078 134.274 140.922C134.263 140.76 134.25 140.601 134.234 140.444H134.865L134.954 141.407H134.857C134.943 141.089 135.118 140.838 135.382 140.655C135.647 140.466 135.962 140.372 136.329 140.372C136.696 140.372 137.011 140.455 137.275 140.622C137.545 140.79 137.755 141.03 137.906 141.342C138.057 141.655 138.133 142.033 138.133 142.475C138.133 142.912 138.057 143.287 137.906 143.599C137.761 143.912 137.553 144.155 137.283 144.327C137.014 144.495 136.696 144.578 136.329 144.578C135.968 144.578 135.655 144.487 135.39 144.303C135.126 144.12 134.951 143.869 134.865 143.551H134.954V146.253H134.298ZM136.199 144.044C136.588 144.044 136.895 143.912 137.122 143.648C137.354 143.378 137.47 142.987 137.47 142.475C137.47 141.957 137.354 141.566 137.122 141.302C136.895 141.032 136.588 140.897 136.199 140.897C135.817 140.897 135.509 141.032 135.277 141.302C135.051 141.566 134.937 141.957 134.937 142.475C134.937 142.987 135.051 143.378 135.277 143.648C135.509 143.912 135.817 144.044 136.199 144.044ZM139.204 144.505V140.444H139.754L141.275 143.171L142.804 140.444H143.354V144.505H142.771V141.172H142.941L141.445 143.85H141.113L139.608 141.164H139.786V144.505H139.204ZM146.224 144.578C145.863 144.578 145.548 144.495 145.278 144.327C145.008 144.155 144.798 143.912 144.647 143.599C144.501 143.287 144.428 142.912 144.428 142.475C144.428 142.033 144.501 141.655 144.647 141.342C144.798 141.03 145.008 140.79 145.278 140.622C145.548 140.455 145.863 140.372 146.224 140.372C146.591 140.372 146.907 140.466 147.171 140.655C147.441 140.838 147.619 141.089 147.705 141.407H147.608L147.697 140.444H148.328C148.312 140.601 148.295 140.76 148.279 140.922C148.268 141.078 148.263 141.232 148.263 141.383V144.505H147.608V143.551H147.697C147.611 143.869 147.433 144.12 147.163 144.303C146.893 144.487 146.58 144.578 146.224 144.578ZM146.354 144.044C146.742 144.044 147.05 143.912 147.276 143.648C147.503 143.378 147.616 142.987 147.616 142.475C147.616 141.957 147.503 141.566 147.276 141.302C147.05 141.032 146.742 140.897 146.354 140.897C145.971 140.897 145.664 141.032 145.432 141.302C145.205 141.566 145.092 141.957 145.092 142.475C145.092 142.987 145.205 143.378 145.432 143.648C145.664 143.912 145.971 144.044 146.354 144.044ZM150.45 144.505V140.97H148.978V140.444H152.586V140.97H151.105V144.505H150.45ZM153.266 144.505V140.444H153.921V141.901H155.143C155.666 141.901 156.06 142.014 156.324 142.24C156.594 142.461 156.729 142.777 156.729 143.187C156.729 143.462 156.667 143.699 156.543 143.899C156.424 144.093 156.246 144.244 156.009 144.352C155.777 144.454 155.488 144.505 155.143 144.505H153.266ZM153.921 144.036H155.086C155.415 144.036 155.666 143.969 155.839 143.834C156.011 143.694 156.098 143.481 156.098 143.195C156.098 142.909 156.011 142.701 155.839 142.572C155.672 142.437 155.421 142.37 155.086 142.37H153.921V144.036ZM157.343 144.505V140.444H157.991V144.505H157.343ZM159.149 141.27V140.444H159.974V141.27H159.149ZM159.149 144.505V143.68H159.974V144.505H159.149ZM163.228 146.01C163.142 146.01 163.042 146.005 162.929 145.994C162.821 145.989 162.71 145.972 162.597 145.945V145.387C162.7 145.409 162.794 145.425 162.88 145.436C162.972 145.452 163.053 145.46 163.123 145.46C163.371 145.46 163.557 145.382 163.681 145.225C163.805 145.074 163.867 144.832 163.867 144.497V138.802H164.539V144.505C164.539 144.829 164.49 145.104 164.393 145.331C164.301 145.557 164.159 145.727 163.964 145.84C163.776 145.954 163.53 146.01 163.228 146.01ZM165.963 144.505V138.802H168.285C168.884 138.802 169.345 138.948 169.669 139.239C169.992 139.525 170.154 139.924 170.154 140.436C170.154 140.938 169.992 141.337 169.669 141.634C169.345 141.925 168.884 142.07 168.285 142.07H166.635V144.505H165.963ZM166.635 141.512H168.22C168.636 141.512 168.949 141.418 169.159 141.229C169.375 141.04 169.482 140.776 169.482 140.436C169.482 140.091 169.375 139.824 169.159 139.635C168.949 139.447 168.636 139.352 168.22 139.352H166.635V141.512ZM171.233 144.505V138.802H174.873V139.352H171.888V141.334H174.695V141.892H171.888V143.947H174.873V144.505H171.233ZM178.586 144.578C177.961 144.578 177.438 144.462 177.017 144.23C176.596 143.998 176.281 143.664 176.07 143.227C175.86 142.79 175.755 142.267 175.755 141.658C175.755 141.054 175.865 140.533 176.087 140.096C176.308 139.66 176.626 139.323 177.041 139.085C177.456 138.848 177.958 138.729 178.546 138.729C178.961 138.729 179.32 138.791 179.622 138.915C179.929 139.034 180.204 139.212 180.447 139.449L180.196 139.975C180.018 139.819 179.846 139.695 179.678 139.603C179.517 139.511 179.347 139.444 179.169 139.401C178.991 139.352 178.783 139.328 178.546 139.328C177.872 139.328 177.354 139.533 176.993 139.943C176.637 140.347 176.459 140.922 176.459 141.666C176.459 142.416 176.631 142.99 176.976 143.389C177.327 143.788 177.869 143.988 178.602 143.988C178.872 143.988 179.128 143.963 179.371 143.915C179.619 143.861 179.859 143.785 180.091 143.688L179.945 144.052V142.046H178.489V141.52H180.52V144.166C180.288 144.29 179.994 144.39 179.638 144.465C179.287 144.541 178.937 144.578 178.586 144.578ZM182.02 145.428L181.713 145.193C181.858 145.042 181.953 144.899 181.996 144.764C182.044 144.635 182.069 144.503 182.069 144.368L182.214 144.505H181.68V143.68H182.505V144.263C182.505 144.478 182.47 144.681 182.4 144.87C182.33 145.064 182.203 145.25 182.02 145.428ZM185.833 144.505V138.802H188.154C188.753 138.802 189.214 138.948 189.538 139.239C189.861 139.525 190.023 139.924 190.023 140.436C190.023 140.938 189.861 141.337 189.538 141.634C189.214 141.925 188.753 142.07 188.154 142.07H186.504V144.505H185.833ZM186.504 141.512H188.09C188.505 141.512 188.818 141.418 189.028 141.229C189.244 141.04 189.352 140.776 189.352 140.436C189.352 140.091 189.244 139.824 189.028 139.635C188.818 139.447 188.505 139.352 188.09 139.352H186.504V141.512ZM191.102 144.505V138.802H191.628L195.285 143.656H195.098V138.802H195.721V144.505H195.204L191.547 139.652H191.725V144.505H191.102ZM199.767 144.578C199.141 144.578 198.618 144.462 198.197 144.23C197.777 143.998 197.461 143.664 197.251 143.227C197.041 142.79 196.935 142.267 196.935 141.658C196.935 141.054 197.046 140.533 197.267 140.096C197.488 139.66 197.806 139.323 198.222 139.085C198.637 138.848 199.139 138.729 199.726 138.729C200.142 138.729 200.5 138.791 200.802 138.915C201.11 139.034 201.385 139.212 201.628 139.449L201.377 139.975C201.199 139.819 201.026 139.695 200.859 139.603C200.697 139.511 200.527 139.444 200.349 139.401C200.171 139.352 199.964 139.328 199.726 139.328C199.052 139.328 198.535 139.533 198.173 139.943C197.817 140.347 197.639 140.922 197.639 141.666C197.639 142.416 197.812 142.99 198.157 143.389C198.508 143.788 199.05 143.988 199.783 143.988C200.053 143.988 200.309 143.963 200.552 143.915C200.8 143.861 201.04 143.785 201.272 143.688L201.126 144.052V142.046H199.67V141.52H201.7V144.166C201.469 144.29 201.175 144.39 200.819 144.465C200.468 144.541 200.117 144.578 199.767 144.578ZM203.201 145.428L202.893 145.193C203.039 145.042 203.133 144.899 203.176 144.764C203.225 144.635 203.249 144.503 203.249 144.368L203.395 144.505H202.861V143.68H203.686V144.263C203.686 144.478 203.651 144.681 203.581 144.87C203.511 145.064 203.384 145.25 203.201 145.428ZM208.874 144.578C208.416 144.578 208.006 144.519 207.644 144.4C207.283 144.282 206.967 144.112 206.698 143.891L206.94 143.357C207.129 143.497 207.318 143.616 207.507 143.713C207.701 143.804 207.909 143.874 208.13 143.923C208.351 143.966 208.599 143.988 208.874 143.988C209.354 143.988 209.71 143.899 209.942 143.721C210.174 143.543 210.29 143.305 210.29 143.009C210.29 142.755 210.209 142.561 210.047 142.426C209.885 142.292 209.602 142.184 209.198 142.103L208.348 141.933C207.825 141.825 207.434 141.65 207.175 141.407C206.922 141.164 206.795 140.835 206.795 140.42C206.795 140.08 206.881 139.784 207.054 139.53C207.232 139.277 207.48 139.08 207.798 138.94C208.116 138.799 208.486 138.729 208.906 138.729C209.311 138.729 209.68 138.791 210.015 138.915C210.349 139.034 210.635 139.209 210.872 139.441L210.638 139.959C210.384 139.732 210.117 139.571 209.837 139.474C209.562 139.371 209.249 139.32 208.898 139.32C208.456 139.32 208.105 139.417 207.847 139.611C207.593 139.8 207.466 140.059 207.466 140.388C207.466 140.652 207.547 140.86 207.709 141.011C207.871 141.156 208.138 141.267 208.51 141.342L209.367 141.512C209.918 141.625 210.322 141.795 210.581 142.022C210.84 142.248 210.969 142.567 210.969 142.976C210.969 143.289 210.883 143.567 210.71 143.81C210.543 144.052 210.303 144.241 209.99 144.376C209.678 144.511 209.305 144.578 208.874 144.578ZM213.763 144.505L211.279 138.802H211.999L214.208 143.972H213.957L216.182 138.802H216.877L214.378 144.505H213.763ZM220.11 144.578C219.485 144.578 218.961 144.462 218.541 144.23C218.12 143.998 217.805 143.664 217.594 143.227C217.384 142.79 217.279 142.267 217.279 141.658C217.279 141.054 217.389 140.533 217.61 140.096C217.831 139.66 218.15 139.323 218.565 139.085C218.98 138.848 219.482 138.729 220.07 138.729C220.485 138.729 220.844 138.791 221.146 138.915C221.453 139.034 221.728 139.212 221.971 139.449L221.72 139.975C221.542 139.819 221.369 139.695 221.202 139.603C221.04 139.511 220.871 139.444 220.693 139.401C220.515 139.352 220.307 139.328 220.07 139.328C219.396 139.328 218.878 139.533 218.516 139.943C218.16 140.347 217.983 140.922 217.983 141.666C217.983 142.416 218.155 142.99 218.5 143.389C218.851 143.788 219.393 143.988 220.126 143.988C220.396 143.988 220.652 143.963 220.895 143.915C221.143 143.861 221.383 143.785 221.615 143.688L221.469 144.052V142.046H220.013V141.52H222.044V144.166C221.812 144.29 221.518 144.39 221.162 144.465C220.811 144.541 220.461 144.578 220.11 144.578ZM223.544 145.428L223.236 145.193C223.382 145.042 223.476 144.899 223.52 144.764C223.568 144.635 223.592 144.503 223.592 144.368L223.738 144.505H223.204V143.68H224.029V144.263C224.029 144.478 223.994 144.681 223.924 144.87C223.854 145.064 223.727 145.25 223.544 145.428ZM228.91 144.505L226.92 138.802H227.623L229.363 143.939H229.08L230.908 138.802H231.442L233.173 143.939H232.914L234.702 138.802H235.365L233.359 144.505H232.761L231.078 139.563H231.248L229.492 144.505H228.91ZM236.355 144.505V138.802H239.995V139.352H237.01V141.334H239.817V141.892H237.01V143.947H239.995V144.505H236.355ZM241.111 144.505V138.802H243.392C243.996 138.802 244.463 138.932 244.792 139.19C245.121 139.449 245.285 139.816 245.285 140.291C245.285 140.647 245.177 140.943 244.962 141.181C244.751 141.418 244.457 141.574 244.08 141.65V141.536C244.501 141.585 244.83 141.731 245.067 141.973C245.31 142.211 245.431 142.532 245.431 142.936C245.431 143.443 245.261 143.831 244.921 144.101C244.587 144.371 244.112 144.505 243.497 144.505H241.111ZM241.766 143.963H243.433C243.843 143.963 244.166 143.885 244.403 143.729C244.646 143.567 244.767 143.3 244.767 142.928C244.767 142.55 244.646 142.283 244.403 142.127C244.166 141.965 243.843 141.884 243.433 141.884H241.766V143.963ZM241.766 141.35H243.295C243.737 141.35 244.069 141.264 244.29 141.092C244.511 140.919 244.622 140.671 244.622 140.347C244.622 140.013 244.511 139.762 244.29 139.595C244.069 139.422 243.737 139.336 243.295 139.336H241.766V141.35ZM246.609 144.505V138.802H248.931C249.53 138.802 249.991 138.948 250.315 139.239C250.638 139.525 250.8 139.924 250.8 140.436C250.8 140.938 250.638 141.337 250.315 141.634C249.991 141.925 249.53 142.07 248.931 142.07H247.281V144.505H246.609ZM247.281 141.512H248.867C249.282 141.512 249.595 141.418 249.805 141.229C250.021 141.04 250.129 140.776 250.129 140.436C250.129 140.091 250.021 139.824 249.805 139.635C249.595 139.447 249.282 139.352 248.867 139.352H247.281V141.512Z" fill="#676767"/>
<path d="M168.034 56.2919C168.845 56.2919 169.509 57.0503 169.509 57.9773V91.6641L169.048 90.9794L156.513 72.44C156.098 71.8186 155.444 71.4604 154.762 71.4604C154.08 71.4604 153.435 71.8186 153.011 72.44L145.361 83.7532L142.549 79.2554C142.135 78.5917 141.471 78.202 140.752 78.202C140.033 78.202 139.369 78.5917 138.955 79.2659L131.581 91.0636L131.166 91.7167V91.6851V57.9773C131.166 57.0503 131.83 56.2919 132.641 56.2919H168.034ZM132.641 51.2357C129.387 51.2357 126.742 54.2589 126.742 57.9773V91.6851C126.742 95.4035 129.387 98.4267 132.641 98.4267H168.034C171.288 98.4267 173.933 95.4035 173.933 91.6851V57.9773C173.933 54.2589 171.288 51.2357 168.034 51.2357H132.641ZM140.015 71.4604C140.596 71.4604 141.171 71.3296 141.708 71.0755C142.244 70.8214 142.732 70.449 143.143 69.9795C143.554 69.51 143.88 68.9526 144.102 68.3391C144.324 67.7257 144.439 67.0682 144.439 66.4042C144.439 65.7402 144.324 65.0828 144.102 64.4693C143.88 63.8559 143.554 63.2985 143.143 62.829C142.732 62.3595 142.244 61.987 141.708 61.7329C141.171 61.4788 140.596 61.348 140.015 61.348C139.434 61.348 138.858 61.4788 138.322 61.7329C137.785 61.987 137.297 62.3595 136.886 62.829C136.475 63.2985 136.15 63.8559 135.927 64.4693C135.705 65.0828 135.591 65.7402 135.591 66.4042C135.591 67.0682 135.705 67.7257 135.927 68.3391C136.15 68.9526 136.475 69.51 136.886 69.9795C137.297 70.449 137.785 70.8214 138.322 71.0755C138.858 71.3296 139.434 71.4604 140.015 71.4604Z" fill="#33A1B3"/>
</svg>
