<svg width="30" height="30" viewBox="0 0 30 30" fill="none" xmlns="http://www.w3.org/2000/svg">
<path d="M30 15C30 6.735 23.265 0 15 0C6.735 0 0 6.735 0 15C0 19.35 1.875 23.265 4.845 26.01C4.845 26.025 4.845 26.025 4.83 26.04C4.98 26.19 5.16 26.31 5.31 26.445C5.4 26.52 5.475 26.595 5.565 26.655C5.835 26.88 6.135 27.09 6.42 27.3C6.525 27.375 6.615 27.435 6.72 27.51C7.005 27.705 7.305 27.885 7.62 28.05C7.725 28.11 7.845 28.185 7.95 28.245C8.25 28.41 8.565 28.56 8.895 28.695C9.015 28.755 9.135 28.815 9.255 28.86C9.585 28.995 9.915 29.115 10.245 29.22C10.365 29.265 10.485 29.31 10.605 29.34C10.965 29.445 11.325 29.535 11.685 29.625C11.79 29.655 11.895 29.685 12.015 29.7C12.435 29.79 12.855 29.85 13.29 29.895C13.35 29.895 13.41 29.91 13.47 29.925C13.98 29.97 14.49 30 15 30C15.51 30 16.02 29.97 16.515 29.925C16.575 29.925 16.635 29.91 16.695 29.895C17.13 29.85 17.55 29.79 17.97 29.7C18.075 29.685 18.18 29.64 18.3 29.625C18.66 29.535 19.035 29.46 19.38 29.34C19.5 29.295 19.62 29.25 19.74 29.22C20.07 29.1 20.415 28.995 20.73 28.86C20.85 28.815 20.97 28.755 21.09 28.695C21.405 28.56 21.72 28.41 22.035 28.245C22.155 28.185 22.26 28.11 22.365 28.05C22.665 27.87 22.965 27.705 23.265 27.51C23.37 27.45 23.46 27.375 23.565 27.3C23.865 27.09 24.15 26.88 24.42 26.655C24.51 26.58 24.585 26.505 24.675 26.445C24.84 26.31 25.005 26.175 25.155 26.04C25.155 26.025 25.155 26.025 25.14 26.01C28.125 23.265 30 19.35 30 15ZM22.41 22.455C18.345 19.725 11.685 19.725 7.59 22.455C6.93 22.89 6.39 23.4 5.94 23.955C3.66 21.645 2.25 18.48 2.25 15C2.25 7.965 7.965 2.25 15 2.25C22.035 2.25 27.75 7.965 27.75 15C27.75 18.48 26.34 21.645 24.06 23.955C23.625 23.4 23.07 22.89 22.41 22.455Z" fill="#226B77"/>
<path d="M15 7.39453C11.895 7.39453 9.375 9.91453 9.375 13.0195C9.375 16.0645 11.76 18.5395 14.925 18.6295H15.06H15.165H15.195C18.225 18.5245 20.61 16.0645 20.625 13.0195C20.625 9.91453 18.105 7.39453 15 7.39453Z" fill="#226B77"/>
</svg>
