<svg width="20" height="20" viewBox="0 0 20 20" fill="none" xmlns="http://www.w3.org/2000/svg">
<path d="M11.9158 10.1474C11.8964 10.128 11.881 10.105 11.8705 10.0797C11.86 10.0544 11.8546 10.0273 11.8546 9.99988C11.8546 9.97248 11.86 9.94534 11.8705 9.92003C11.881 9.89472 11.8964 9.87174 11.9158 9.85238L19.6343 2.13436C19.8687 1.89965 20.0002 1.58145 20 1.24976C19.9998 0.91807 19.8678 0.600056 19.6331 0.365681C19.3984 0.131305 19.0802 -0.000234095 18.7485 3.12755e-07C18.4168 0.00023472 18.0988 0.132224 17.8645 0.366931L10.1468 8.08162C10.1274 8.10102 10.1044 8.11642 10.0791 8.12692C10.0538 8.13742 10.0267 8.14283 9.99929 8.14283C9.97189 8.14283 9.94476 8.13742 9.91945 8.12692C9.89414 8.11642 9.87115 8.10102 9.8518 8.08162L2.1341 0.366931C2.01805 0.250825 1.88027 0.158714 1.72863 0.0958571C1.57699 0.0330002 1.41445 0.000628216 1.2503 0.000589526C0.918777 0.000511389 0.600802 0.132138 0.366326 0.366514C0.13185 0.60089 7.81685e-05 0.918815 3.47667e-08 1.25035C-7.8099e-05 1.58189 0.131543 1.89987 0.365909 2.13436L8.08278 9.85238C8.10218 9.87174 8.11757 9.89472 8.12807 9.92003C8.13857 9.94534 8.14398 9.97248 8.14398 9.99988C8.14398 10.0273 8.13857 10.0544 8.12807 10.0797C8.11757 10.105 8.10218 10.128 8.08278 10.1474L0.365909 17.8662C0.249863 17.9823 0.157821 18.1202 0.0950382 18.2718C0.0322553 18.4235 -3.86531e-05 18.5861 3.47667e-08 18.7502C7.81685e-05 19.0818 0.13185 19.3997 0.366326 19.6341C0.482427 19.7501 0.620248 19.8422 0.77192 19.905C0.923592 19.9677 1.08615 20 1.2503 20C1.58182 19.9999 1.89973 19.8681 2.1341 19.6337L9.8518 11.9148C9.87115 11.8954 9.89414 11.88 9.91945 11.8695C9.94476 11.859 9.97189 11.8536 9.99929 11.8536C10.0267 11.8536 10.0538 11.859 10.0791 11.8695C10.1044 11.88 10.1274 11.8954 10.1468 11.9148L17.8645 19.6337C18.0988 19.8681 18.4168 19.9999 18.7483 20C19.0798 20.0001 19.3978 19.8685 19.6322 19.6341C19.8667 19.3997 19.9985 19.0818 19.9986 18.7502C19.9987 18.4187 19.867 18.1007 19.6327 17.8662L11.9158 10.1474Z" fill="#141414" fill-opacity="0.7"/>
</svg>
