<svg width="15" height="16" viewBox="0 0 15 16" fill="none" xmlns="http://www.w3.org/2000/svg">
<path d="M10.4167 7.98242V7.53125V6.59375C10.4167 6.33594 10.2292 6.125 10 6.125H9.16667H8.75H7.53906C6.21354 6.125 5.09375 7.10645 4.71875 8.45703C4.63281 8.18164 4.58333 7.87695 4.58333 7.53125C4.58333 5.71777 5.88802 4.25 7.5 4.25H8.75H9.16667H10C10.2292 4.25 10.4167 4.03906 10.4167 3.78125V2.84375V2.39258L13.1771 5.1875L10.4167 7.98242ZM8.75 7.53125H9.16667V8.9375C9.16667 9.45605 9.53906 9.875 10 9.875H10.0964C10.3021 9.875 10.5 9.79004 10.6536 9.63477L14.2734 5.96973C14.4714 5.77051 14.5833 5.48633 14.5833 5.1875C14.5833 4.88867 14.4714 4.60449 14.2734 4.40527L10.6745 0.760742C10.5078 0.59375 10.2943 0.5 10.0703 0.5C9.57031 0.5 9.16667 0.954102 9.16667 1.5166V2.84375H8.75H7.91667H7.5C5.19792 2.84375 3.33333 4.94141 3.33333 7.53125C3.33333 9.30078 4.23438 10.4346 4.9974 11.0732C5.15104 11.2021 5.29688 11.3105 5.43229 11.4014C5.54688 11.4805 5.65365 11.5449 5.74219 11.5947C5.83073 11.6445 5.90365 11.6826 5.95573 11.709C6.01302 11.7383 6.07552 11.75 6.14063 11.75H6.20573C6.46094 11.75 6.66927 11.5156 6.66927 11.2285C6.66927 11 6.53125 10.7979 6.36719 10.6572C6.35677 10.6484 6.34896 10.6426 6.33854 10.6338C6.29427 10.6016 6.25 10.5605 6.20833 10.5137C6.1875 10.4902 6.16406 10.4668 6.14323 10.4375C6.1224 10.4082 6.10156 10.3818 6.08073 10.3525C6.03385 10.2793 5.98958 10.1973 5.95052 10.1035C5.88281 9.92773 5.83854 9.71387 5.83854 9.44727C5.83854 8.38965 6.60156 7.52832 7.54427 7.52832H7.91667H8.75V7.53125ZM1.875 1.4375C0.838542 1.4375 0 2.38086 0 3.54688V13.3906C0 14.5566 0.838542 15.5 1.875 15.5H10.625C11.6615 15.5 12.5 14.5566 12.5 13.3906V11.5156C12.5 11.126 12.2214 10.8125 11.875 10.8125C11.5286 10.8125 11.25 11.126 11.25 11.5156V13.3906C11.25 13.7803 10.9714 14.0938 10.625 14.0938H1.875C1.52865 14.0938 1.25 13.7803 1.25 13.3906V3.54688C1.25 3.15723 1.52865 2.84375 1.875 2.84375H3.54167C3.88802 2.84375 4.16667 2.53027 4.16667 2.14062C4.16667 1.75098 3.88802 1.4375 3.54167 1.4375H1.875Z" fill="#141414" fill-opacity="0.7"/>
</svg>
