<svg width="15" height="16" viewBox="0 0 15 16" fill="none" xmlns="http://www.w3.org/2000/svg">
<path d="M13.125 2.10714C13.3828 2.10714 13.5938 2.34821 13.5938 2.64286V13.3504L13.4473 13.1328L9.46289 7.23996C9.33105 7.04241 9.12305 6.92857 8.90625 6.92857C8.68945 6.92857 8.48437 7.04241 8.34961 7.23996L5.91797 10.8359L5.02441 9.40625C4.89258 9.19531 4.68164 9.07143 4.45312 9.07143C4.22461 9.07143 4.01367 9.19531 3.88184 9.4096L1.53809 13.1596L1.40625 13.3672V13.3571V2.64286C1.40625 2.34821 1.61719 2.10714 1.875 2.10714H13.125ZM1.875 0.5C0.84082 0.5 0 1.46094 0 2.64286V13.3571C0 14.5391 0.84082 15.5 1.875 15.5H13.125C14.1592 15.5 15 14.5391 15 13.3571V2.64286C15 1.46094 14.1592 0.5 13.125 0.5H1.875ZM4.21875 6.92857C4.40342 6.92857 4.58628 6.887 4.7569 6.80623C4.92751 6.72547 5.08254 6.60709 5.21312 6.45785C5.3437 6.30861 5.44729 6.13144 5.51796 5.93646C5.58863 5.74147 5.625 5.53248 5.625 5.32143C5.625 5.11038 5.58863 4.90139 5.51796 4.7064C5.44729 4.51141 5.3437 4.33424 5.21312 4.18501C5.08254 4.03577 4.92751 3.91739 4.7569 3.83662C4.58628 3.75586 4.40342 3.71429 4.21875 3.71429C4.03408 3.71429 3.85122 3.75586 3.6806 3.83662C3.50999 3.91739 3.35496 4.03577 3.22438 4.18501C3.0938 4.33424 2.99021 4.51141 2.91954 4.7064C2.84887 4.90139 2.8125 5.11038 2.8125 5.32143C2.8125 5.53248 2.84887 5.74147 2.91954 5.93646C2.99021 6.13144 3.0938 6.30861 3.22438 6.45785C3.35496 6.60709 3.50999 6.72547 3.6806 6.80623C3.85122 6.887 4.03408 6.92857 4.21875 6.92857Z" fill="#141414" fill-opacity="0.7"/>
</svg>
