<svg width="716" height="284" viewBox="0 0 716 284" fill="none" xmlns="http://www.w3.org/2000/svg">
<path d="M230.331 155.55V124.742H243.057C245.364 124.742 247.355 125.193 249.029 126.096C250.714 126.988 252.013 128.237 252.926 129.841C253.838 131.436 254.295 133.291 254.295 135.407C254.295 137.534 253.828 139.394 252.896 140.988C251.973 142.573 250.654 143.802 248.939 144.674C247.224 145.547 245.188 145.983 242.832 145.983H234.979V140.116H241.448C242.571 140.116 243.509 139.92 244.261 139.529C245.023 139.138 245.6 138.592 245.991 137.89C246.382 137.178 246.577 136.35 246.577 135.407C246.577 134.455 246.382 133.632 245.991 132.94C245.6 132.238 245.023 131.697 244.261 131.316C243.499 130.935 242.561 130.744 241.448 130.744H237.777V155.55H230.331ZM313.505 133.978C313.404 132.875 312.958 132.018 312.166 131.406C311.384 130.784 310.265 130.473 308.811 130.473C307.848 130.473 307.046 130.599 306.404 130.849C305.762 131.1 305.281 131.446 304.96 131.887C304.639 132.319 304.474 132.815 304.464 133.377C304.444 133.838 304.534 134.244 304.734 134.595C304.945 134.946 305.246 135.257 305.637 135.528C306.038 135.789 306.52 136.019 307.081 136.22C307.643 136.42 308.275 136.596 308.977 136.746L311.624 137.348C313.149 137.679 314.493 138.12 315.656 138.672C316.829 139.223 317.812 139.88 318.604 140.642C319.407 141.405 320.013 142.282 320.425 143.275C320.836 144.268 321.046 145.381 321.056 146.615C321.046 148.56 320.555 150.23 319.582 151.624C318.609 153.018 317.21 154.086 315.385 154.828C313.57 155.57 311.379 155.941 308.811 155.941C306.234 155.941 303.987 155.555 302.072 154.783C300.156 154.011 298.667 152.837 297.604 151.263C296.541 149.688 295.994 147.698 295.964 145.291H303.095C303.155 146.284 303.421 147.111 303.892 147.773C304.363 148.435 305.01 148.936 305.833 149.277C306.665 149.618 307.628 149.789 308.721 149.789C309.724 149.789 310.576 149.653 311.278 149.383C311.99 149.112 312.537 148.736 312.918 148.254C313.299 147.773 313.495 147.221 313.505 146.6C313.495 146.018 313.314 145.521 312.963 145.11C312.612 144.689 312.071 144.328 311.338 144.027C310.616 143.716 309.694 143.43 308.57 143.17L305.351 142.418C302.684 141.806 300.583 140.818 299.048 139.454C297.514 138.08 296.752 136.225 296.762 133.888C296.752 131.983 297.263 130.313 298.296 128.879C299.329 127.445 300.758 126.326 302.583 125.524C304.409 124.722 306.49 124.321 308.826 124.321C311.213 124.321 313.284 124.727 315.039 125.539C316.804 126.341 318.173 127.47 319.146 128.924C320.119 130.378 320.615 132.063 320.635 133.978H313.505Z" fill="#226B77"/>
<path d="M257.965 155.55V132.444H265.321V155.55H257.965ZM261.651 129.751C260.618 129.751 259.73 129.41 258.988 128.728C258.246 128.036 257.875 127.204 257.875 126.231C257.875 125.268 258.246 124.446 258.988 123.764C259.73 123.072 260.618 122.726 261.651 122.726C262.694 122.726 263.581 123.072 264.313 123.764C265.055 124.446 265.427 125.268 265.427 126.231C265.427 127.204 265.055 128.036 264.313 128.728C263.581 129.41 262.694 129.751 261.651 129.751ZM277.36 142.372V155.55H270.003V132.444H276.999V136.686H277.254C277.766 135.272 278.638 134.164 279.872 133.362C281.105 132.549 282.575 132.143 284.279 132.143C285.904 132.143 287.313 132.509 288.507 133.241C289.71 133.963 290.643 134.976 291.305 136.28C291.977 137.574 292.308 139.088 292.297 140.823V155.55H284.941V142.267C284.951 140.983 284.625 139.981 283.964 139.258C283.312 138.536 282.404 138.175 281.241 138.175C280.469 138.175 279.787 138.346 279.195 138.687C278.613 139.018 278.162 139.494 277.841 140.116C277.53 140.738 277.37 141.49 277.36 142.372ZM324.817 164.215V132.444H332.098V136.4H332.324C332.625 135.698 333.051 135.021 333.602 134.369C334.164 133.718 334.876 133.186 335.739 132.775C336.611 132.354 337.654 132.143 338.868 132.143C340.472 132.143 341.971 132.564 343.365 133.407C344.769 134.249 345.903 135.548 346.765 137.303C347.628 139.058 348.059 141.294 348.059 144.012C348.059 146.63 347.643 148.821 346.81 150.586C345.988 152.351 344.875 153.675 343.471 154.557C342.077 155.44 340.527 155.881 338.822 155.881C337.659 155.881 336.651 155.691 335.799 155.31C334.946 154.929 334.229 154.427 333.648 153.805C333.076 153.183 332.635 152.517 332.324 151.805H332.173V164.215H324.817ZM332.023 143.997C332.023 145.241 332.188 146.324 332.519 147.246C332.86 148.169 333.347 148.886 333.978 149.398C334.62 149.899 335.388 150.15 336.28 150.15C337.183 150.15 337.95 149.899 338.582 149.398C339.214 148.886 339.69 148.169 340.011 147.246C340.342 146.324 340.507 145.241 340.507 143.997C340.507 142.754 340.342 141.675 340.011 140.763C339.69 139.85 339.214 139.143 338.582 138.642C337.96 138.14 337.193 137.89 336.28 137.89C335.378 137.89 334.61 138.135 333.978 138.627C333.347 139.118 332.86 139.82 332.519 140.733C332.188 141.645 332.023 142.733 332.023 143.997ZM351.914 155.55V132.444H359.27V155.55H351.914ZM355.599 129.751C354.566 129.751 353.679 129.41 352.937 128.728C352.195 128.036 351.824 127.204 351.824 126.231C351.824 125.268 352.195 124.446 352.937 123.764C353.679 123.072 354.566 122.726 355.599 122.726C356.642 122.726 357.53 123.072 358.262 123.764C359.004 124.446 359.375 125.268 359.375 126.231C359.375 127.204 359.004 128.036 358.262 128.728C357.53 129.41 356.642 129.751 355.599 129.751ZM363.952 155.55V132.444H371.098V136.656H371.338C371.76 135.132 372.446 133.998 373.399 133.256C374.352 132.504 375.46 132.128 376.724 132.128C377.065 132.128 377.416 132.153 377.777 132.203C378.138 132.243 378.474 132.309 378.785 132.399V138.792C378.434 138.672 377.972 138.577 377.401 138.506C376.839 138.436 376.338 138.401 375.896 138.401C375.024 138.401 374.237 138.597 373.535 138.988C372.843 139.369 372.296 139.905 371.895 140.597C371.504 141.279 371.308 142.082 371.308 143.004V155.55H363.952ZM391.383 155.987C388.966 155.987 386.88 155.51 385.125 154.557C383.38 153.595 382.037 152.226 381.094 150.451C380.161 148.666 379.695 146.544 379.695 144.087C379.695 141.701 380.166 139.615 381.109 137.829C382.052 136.034 383.38 134.64 385.095 133.647C386.81 132.644 388.831 132.143 391.158 132.143C392.802 132.143 394.307 132.399 395.671 132.91C397.035 133.422 398.213 134.179 399.206 135.182C400.199 136.185 400.971 137.423 401.523 138.897C402.074 140.362 402.35 142.041 402.35 143.937V145.772H382.267V141.5H395.505C395.495 140.718 395.31 140.021 394.949 139.409C394.588 138.797 394.091 138.321 393.459 137.98C392.838 137.629 392.121 137.453 391.308 137.453C390.486 137.453 389.749 137.639 389.097 138.01C388.445 138.371 387.928 138.867 387.547 139.499C387.166 140.121 386.966 140.828 386.946 141.62V145.968C386.946 146.91 387.131 147.738 387.502 148.45C387.873 149.152 388.4 149.698 389.082 150.09C389.764 150.481 390.576 150.676 391.519 150.676C392.171 150.676 392.762 150.586 393.294 150.406C393.825 150.225 394.282 149.959 394.663 149.608C395.044 149.257 395.33 148.826 395.52 148.315L402.275 148.51C401.994 150.024 401.377 151.343 400.424 152.466C399.482 153.58 398.243 154.447 396.709 155.069C395.174 155.681 393.399 155.987 391.383 155.987Z" fill="#181818" fill-opacity="0.87"/>
<path opacity="0.5" d="M133.07 61.2403C137.945 62.3293 148.175 67.0218 148.044 59.9714C147.944 54.5794 149.913 49.0794 150.122 43.6493C150.2 41.6274 150.719 38.1321 148.231 36.8858C146.19 35.8627 144.241 36.801 143.262 38.3947C140.058 43.612 144.555 50.7416 142.118 55.9068C136.651 51.5778 133.151 45.132 128.319 40.269C123.204 35.1209 118.129 29.9973 112.417 25.2862C107.727 21.4174 101.351 16.0363 94.0251 17.389C86.8094 18.7213 83.3896 26.0402 81.1808 31.1443C79.9192 34.0595 78.5932 36.9846 77.4056 39.9031C76.2611 42.7157 74.9056 46.2906 71.9027 48.1999C66.5037 51.6327 57.3432 43.6951 53.6785 40.7363C47.7412 35.943 41.8755 31.1092 35.6402 26.5695C30.8735 23.099 24.235 19.1875 18.1074 22.6991C11.6478 26.4011 9.70151 34.2751 8.45479 40.2637C7.08961 46.8214 6.73268 54.5153 8.37163 61.0697C8.56241 61.8324 10.4927 67.4634 12.091 64.9378C12.2704 64.6543 11.3106 62.4404 11.235 61.9435C10.9555 60.1069 10.9054 58.3221 10.8715 56.4725C10.7744 51.1666 11.3556 46.0956 12.2848 40.995C13.1085 36.4734 15.4631 26.0384 22.4659 25.0608C26.053 24.56 29.3119 27.444 31.7523 29.1583C35.0609 31.4824 37.9857 34.1476 41.0386 36.6944C48.2916 42.7447 62.1011 58.5411 74.4328 53.1568C80.9043 50.331 83.5155 42.4426 85.7711 37.1476C87.486 33.1222 90.7982 21.489 98.1075 23.2566C101.863 24.1648 105.21 27.5284 107.783 29.8087C110.934 32.6003 114.078 35.3869 117.146 38.2421C120.386 41.2567 123.593 44.2932 126.77 47.3523C129.789 50.2581 133.742 52.9982 136.329 56.148C132.745 56.3421 123.843 52.2195 120.914 54.695C116.676 58.2755 130.842 60.7425 133.07 61.2403Z" fill="#222221"/>
<path d="M314.283 272.165C307.6 276.268 299.536 278.28 291.152 279.535C281.015 281.052 271.054 280.313 261.207 278.234C251.474 276.179 244.731 271.909 240.59 265.348C234.127 255.107 232.459 244.438 235.659 233.298C236.18 231.484 236.609 229.657 237.056 227.833C237.084 227.718 236.903 227.579 236.604 227.123C232.219 229.696 227.904 232.228 223.588 234.76C223.233 234.584 222.878 234.408 222.522 234.231C222.603 233.511 222.286 232.524 222.825 232.112C229.822 226.764 236.865 221.445 244.079 216.249C246.026 214.846 247.921 215.228 249.396 216.998C250.195 217.956 250.511 219.124 251.296 220.09C252.767 221.899 254.452 223.616 255.991 225.397C257.394 227.021 258.723 228.679 260.259 230.534C256.14 230.829 255.104 230.341 247.247 224.737C246.696 225.723 246.119 226.534 245.784 227.391C241.957 237.165 240.183 246.95 243.954 256.887C248.885 269.88 254.681 274.274 275.977 276.896C287.94 278.369 299.211 276.063 310.17 272.603C311.387 272.219 312.564 271.769 313.76 271.349L314.283 272.165Z" fill="#181818" fill-opacity="0.87"/>
<path opacity="0.5" d="M453.631 218.271C454.538 220.16 455.513 224.537 458.289 224.95C462.037 225.508 461.777 222.108 461.63 219.927C461.341 215.636 457.605 209.569 458.905 205.562C489.94 226.16 527.476 236.789 567.118 235.47C606.547 234.158 649.798 222.017 674.467 194.817C686.541 181.505 694.198 165.515 691.805 148.488C691.6 147.027 690.986 139.766 687.795 141.136C686.132 141.849 687.03 151.166 686.88 152.85C686.101 161.602 683.545 169.74 678.921 177.593C663.165 204.349 628.348 220.305 594.63 225.866C572.293 229.55 548.466 229.124 526.148 224.92C514.629 222.75 503.112 219.612 492.535 215.15C483.614 211.387 468.767 205.485 463.134 198.253C471.871 196.54 482.931 201.91 491.958 201.279C496.739 200.945 500.781 197.572 495.881 194.519C491.909 192.045 483.174 192.557 478.409 192.109C473.091 191.609 467.785 191.256 462.436 191.174C458.513 191.113 450.123 189.618 447.129 192.01C441.833 196.241 451.493 213.364 453.631 218.271C452.739 216.223 454.58 220.246 453.631 218.271Z" fill="#222221"/>
<path d="M603.139 58.2431C611.734 58.3105 620.388 58.1232 628.94 58.9431C632.829 59.3159 636.752 59.696 640.602 60.285C643.457 60.7219 649.171 60.7902 651.195 62.8762C657.478 69.3534 626.35 80.0481 621.385 82.2539C614.271 85.4147 606.979 88.357 599.888 91.5886C598.712 92.1244 590.898 94.8351 590.683 95.9968C590.504 96.9678 595.66 97.4511 596.848 97.666C604.849 99.1136 632.291 100.81 630.787 111.511C629.867 118.06 617.94 122.904 612.08 126.019C608.628 127.854 605.132 129.629 601.599 131.357C598.831 132.71 593.97 134.023 592.365 136.477C597.326 138.106 612.995 129.807 614.943 136.551C616.348 141.419 606.408 140.919 603.044 141.403C598.497 142.056 593.733 142.654 589.042 143.115C584.743 143.538 576.951 144.812 576.168 139.732C575.575 135.889 577.893 130.447 578.873 126.621C579.397 124.576 581.326 114.673 585.804 118.505C589.528 121.691 584.524 128.853 585.934 132.528C593.104 127.459 601.505 123.747 609.382 119.512C613.046 117.542 616.937 115.566 620.164 113.121C624.275 110.007 621.174 109.046 616.865 107.777C609.436 105.591 601.474 104.9 593.853 103.476C590.271 102.807 584.343 102.076 581.943 99.5028C579.028 96.3794 582.462 93.3305 585.481 91.4702C592.87 86.9177 601.995 83.8483 610.22 80.4821C619.468 76.6968 628.752 72.9911 637.753 68.8113C638.251 68.58 642.919 66.8105 642.979 66.1566C643.066 65.1988 639.895 65.3129 639.11 65.2247C635.057 64.7701 631.02 64.0784 626.98 63.6798C617.751 62.7693 608.194 62.4699 598.878 62.3198C593.197 62.2283 587.554 61.7998 581.866 61.7086C580.169 61.6814 570.468 62.699 571.939 60.1082C573.048 58.1563 583.194 58.2119 585.32 58.1251C591.22 57.8843 597.233 58.1968 603.139 58.2431Z" fill="#181818" fill-opacity="0.87"/>
<path d="M291.077 36.782C291.572 32.9548 293.739 10.0694 300.796 12.5105C304.72 13.8677 301.772 21.7348 301.465 24.3403C301.014 28.1681 299.792 32.1621 299.778 35.9986C302.735 35.1737 305.722 30.2945 308.64 30.4002C313.253 30.5672 308.236 35.6179 307.104 36.7348C304.187 39.615 301.139 42.3843 298.211 45.26C296.075 47.3588 293.28 50.7471 289.383 49.4478C285.837 48.2658 284.636 43.2413 283.405 40.6073C281.891 37.368 280.132 33.5072 279.721 30.0213C279.25 26.028 282.624 24.93 285.203 28.2342C287.459 31.1236 288.139 34.7542 290.412 37.6307C290.925 37.0976 290.97 36.276 291.134 35.6255C291.459 35.6548 290.689 37.9428 290.79 38.0141C290.856 38.0606 291.184 36.114 291.077 36.782C290.889 37.963 291.421 34.1214 291.077 36.782Z" fill="#181818" fill-opacity="0.87"/>
</svg>
