<svg width="94" height="80" viewBox="0 0 94 80" fill="none" xmlns="http://www.w3.org/2000/svg">
<path d="M46.9995 79.7501C45.7636 79.7531 44.5392 79.5117 43.3968 79.0397C42.2545 78.5678 41.2167 77.8746 40.3433 77.0001L8.15579 44.8126C5.6131 42.2422 3.60732 39.1916 2.25531 35.8384C0.903305 32.4852 0.232096 28.8965 0.280792 25.2813C0.305291 21.9683 0.983163 18.6927 2.27558 15.6421C3.568 12.5915 5.44956 9.8258 7.8125 7.5035C10.1754 5.1812 12.9733 3.34789 16.0459 2.10858C19.1185 0.86928 22.4054 0.248332 25.7183 0.281307C29.0905 0.247339 32.4352 0.890919 35.5541 2.17388C38.6729 3.45684 41.5023 5.35305 43.8745 7.75006L46.9995 10.8751L49.562 8.31256C53.9868 3.77058 59.9076 0.986034 66.2279 0.474665C72.5482 -0.0367053 78.8397 1.75975 83.937 5.53131C86.8387 7.76584 89.2309 10.5929 90.9545 13.8243C92.6781 17.0557 93.6934 20.6172 93.9329 24.2717C94.1724 27.9262 93.6306 31.5897 92.3434 35.0184C91.0563 38.4471 89.0535 41.5622 86.4683 44.1563L53.6558 77.0001C52.7824 77.8746 51.7446 78.5678 50.6023 79.0397C49.4599 79.5117 48.2355 79.7531 46.9995 79.7501ZM25.5933 6.50006C20.6262 6.49499 15.8519 8.42262 12.2808 11.8751C10.4602 13.6268 9.01232 15.7283 8.02422 18.0536C7.03612 20.3789 6.52814 22.8798 6.53079 25.4063C6.5034 28.1854 7.02793 30.9423 8.07397 33.5172C9.12002 36.0921 10.6668 38.4337 12.6245 40.4063L44.812 72.5938C45.1026 72.8867 45.4482 73.1192 45.829 73.2778C46.2098 73.4365 46.6183 73.5182 47.0308 73.5182C47.4433 73.5182 47.8518 73.4365 48.2326 73.2778C48.6134 73.1192 48.959 72.8867 49.2495 72.5938L82.0933 39.7188C84.0212 37.7502 85.5107 35.3959 86.464 32.8107C87.4173 30.2255 87.8128 27.4678 87.6245 24.7188C87.4577 21.9417 86.6927 19.2334 85.3821 16.7793C84.0714 14.3252 82.246 12.1832 80.0308 10.5001C76.1437 7.6341 71.3473 6.27898 66.5351 6.68718C61.723 7.09538 57.2234 9.23905 53.8745 12.7188L49.2183 17.5001C48.9278 17.793 48.5822 18.0254 48.2013 18.1841C47.8205 18.3427 47.4121 18.4244 46.9995 18.4244C46.587 18.4244 46.1786 18.3427 45.7977 18.1841C45.4169 18.0254 45.0713 17.793 44.7808 17.5001L39.4683 12.1876C35.8092 8.5603 30.8705 6.51746 25.7183 6.50006H25.5933Z" fill="#CF0808"/>
</svg>
