<svg width="30" height="30" viewBox="0 0 30 30" fill="none" xmlns="http://www.w3.org/2000/svg">
<path d="M17.5 17.815V20.4275C16.3687 20.0275 15.1578 19.9048 13.9693 20.0697C12.7807 20.2347 11.649 20.6824 10.6693 21.3753C9.68958 22.0682 8.89043 22.986 8.33895 24.0518C7.78748 25.1175 7.49977 26.3 7.5 27.5H5C4.99942 25.9735 5.34832 24.4671 6.01996 23.0963C6.6916 21.7255 7.66815 20.5267 8.87478 19.5917C10.0814 18.6567 11.4861 18.0103 12.9811 17.7021C14.4762 17.3939 16.022 17.4334 17.5 17.815ZM15 16.25C10.8563 16.25 7.5 12.8938 7.5 8.75C7.5 4.60625 10.8563 1.25 15 1.25C19.1438 1.25 22.5 4.60625 22.5 8.75C22.5 12.8938 19.1438 16.25 15 16.25ZM15 13.75C17.7625 13.75 20 11.5125 20 8.75C20 5.9875 17.7625 3.75 15 3.75C12.2375 3.75 10 5.9875 10 8.75C10 11.5125 12.2375 13.75 15 13.75ZM22.5 21.25V17.5H25V21.25H28.75V23.75H25V27.5H22.5V23.75H18.75V21.25H22.5Z" fill="#141414" fill-opacity="0.7"/>
</svg>
