<svg id="bc09fb1f-966a-4190-94bb-daf5e14ecc7b" data-name="Layer 1" xmlns="http://www.w3.org/2000/svg" viewBox="0 0 32 32"><circle cx="16" cy="16" r="16" style="fill:#005ff9"/><path d="M19.005,16A3,3,0,1,1,16,13,3.008,3.008,0,0,1,19.005,16ZM16,6.01a9.99,9.99,0,1,0,5.627,18.242l.029-.02L20.31,22.668l-.023.015a7.95,7.95,0,1,1,3.468-4.976,1.485,1.485,0,0,1-1.515,1.3,1.279,1.279,0,0,1-1.187-1.383V16a5.062,5.062,0,1,0-1.473,3.561,3.245,3.245,0,0,0,2.5,1.492c.088.007.179.011.269.011a3.373,3.373,0,0,0,2.027-.684,3.765,3.765,0,0,0,1.293-1.9c.04-.127.112-.419.112-.421l0-.011A8.813,8.813,0,0,0,25.99,16,10,10,0,0,0,16,6.01" style="fill:#ff9e00"/></svg>