<svg width="145" height="115" viewBox="0 0 145 115" fill="none" xmlns="http://www.w3.org/2000/svg">
<rect x="0.625" width="143.75" height="115" fill="white"/>
<path fill-rule="evenodd" clip-rule="evenodd" d="M119.65 37.375C121.873 37.375 123.675 39.1771 123.675 41.4C123.675 43.6229 121.873 45.425 119.65 45.425H96.6504C98.8733 45.425 100.675 47.2271 100.675 49.45C100.675 51.6729 98.8733 53.475 96.6504 53.475H109.3C111.523 53.475 113.325 55.2771 113.325 57.5C113.325 59.7229 111.523 61.525 109.3 61.525H103.45C100.648 61.525 98.3754 63.3271 98.3754 65.55C98.3754 67.032 99.5254 68.3736 101.825 69.575C104.048 69.575 105.85 71.3771 105.85 73.6C105.85 75.8229 104.048 77.625 101.825 77.625H54.1004C51.8774 77.625 50.0754 75.8229 50.0754 73.6C50.0754 71.3771 51.8774 69.575 54.1004 69.575H31.6754C29.4524 69.575 27.6504 67.7729 27.6504 65.55C27.6504 63.3271 29.4524 61.525 31.6754 61.525H54.6754C56.8983 61.525 58.7004 59.7229 58.7004 57.5C58.7004 55.2771 56.8983 53.475 54.6754 53.475H40.3004C38.0774 53.475 36.2754 51.6729 36.2754 49.45C36.2754 47.2271 38.0774 45.425 40.3004 45.425H63.3004C61.0774 45.425 59.2754 43.6229 59.2754 41.4C59.2754 39.1771 61.0774 37.375 63.3004 37.375H119.65ZM119.65 53.475C121.873 53.475 123.675 55.2771 123.675 57.5C123.675 59.7229 121.873 61.525 119.65 61.525C117.427 61.525 115.625 59.7229 115.625 57.5C115.625 55.2771 117.427 53.475 119.65 53.475Z" fill="#F3F7FF"/>
<path d="M69.9129 76.4749C80.5513 76.4749 89.1754 67.8508 89.1754 57.2125C89.1754 46.5741 80.5513 37.95 69.9129 37.95C59.2745 37.95 50.6504 46.5741 50.6504 57.2125C50.6504 67.8508 59.2745 76.4749 69.9129 76.4749Z" fill="#F3F7FF" stroke="#226B77" stroke-width="1.4375"/>
<path fill-rule="evenodd" clip-rule="evenodd" d="M66.8267 72.1588C67.838 72.3455 68.8668 72.4425 69.9133 72.4499C78.3287 72.4499 85.1508 65.6278 85.1508 57.2124C85.1508 48.7969 78.3287 41.9749 69.9133 41.9749C67.7515 41.9749 65.6948 42.425 63.832 43.2368C60.5947 44.6474 57.9427 47.1498 56.341 50.2789C55.2764 52.3587 54.6758 54.7154 54.6758 57.2124C54.6758 59.4779 55.1702 61.6279 56.057 63.5604C56.6901 64.9401 57.5233 66.209 58.5193 67.3298" fill="white"/>
<path d="M66.8267 72.1588C67.838 72.3455 68.8669 72.4425 69.9133 72.4499C78.3287 72.4499 85.1508 65.6278 85.1508 57.2124C85.1508 48.7969 78.3287 41.9749 69.9133 41.9749C67.7515 41.9749 65.6948 42.425 63.832 43.2368C60.5947 44.6474 57.9427 47.1498 56.341 50.2789C55.2764 52.3587 54.6758 54.7154 54.6758 57.2124C54.6758 59.4779 55.1702 61.6279 56.057 63.5604C56.6901 64.9401 57.5233 66.209 58.5193 67.3298" stroke="#226B77" stroke-width="1.4375" stroke-linecap="round"/>
<path d="M60.3086 69.043C61.5438 70.0469 62.9392 70.8613 64.4506 71.4418" stroke="#226B77" stroke-width="1.4375" stroke-linecap="round"/>
<path d="M85.7246 72.45L89.1746 75.9" stroke="#226B77" stroke-width="1.4375"/>
<path fill-rule="evenodd" clip-rule="evenodd" d="M88.619 75.3424C87.5307 76.4307 87.5307 78.1952 88.619 79.2835L94.993 85.6575C96.0813 86.7458 97.8458 86.7458 98.9341 85.6575C100.022 84.5692 100.022 82.8047 98.9341 81.7164L92.5601 75.3424C91.4718 74.254 89.7073 74.254 88.619 75.3424Z" fill="#E8F0FE" stroke="#226B77" stroke-width="1.4375"/>
<path d="M91.4746 76.4749L97.7996 82.7999" stroke="white" stroke-width="1.4375" stroke-linecap="round"/>
<path fill-rule="evenodd" clip-rule="evenodd" d="M66.1752 50.5999C66.1752 57.2687 71.5814 62.6749 78.2502 62.6749C79.5603 62.6749 80.8216 62.4663 82.0028 62.0804C80.0748 66.865 75.3881 70.2423 69.9127 70.2423C62.7165 70.2423 56.8828 64.4086 56.8828 57.2124C56.8828 50.6916 61.6728 45.2896 67.9261 44.333C66.8151 46.1605 66.1752 48.3055 66.1752 50.5999Z" fill="#E8F0FE"/>
<path d="M70.2004 46.575C69.4682 46.575 68.7528 46.647 68.061 46.7843M65.9711 47.4237C62.0376 49.0767 59.2754 52.9657 59.2754 57.5" stroke="#9CD9E3" stroke-width="1.4375" stroke-linecap="round"/>
<path d="M100.777 57.3719H96.0757M104.413 52.8999H94.5371H104.413ZM108.438 52.8999H107.161H108.438Z" stroke="#9CD9E3" stroke-width="1.4375" stroke-linecap="round" stroke-linejoin="round"/>
<path d="M49.0263 70.0221H44.3252M46.3377 64.9751H36.4617H46.3377ZM33.1127 64.9751H30.6855H33.1127Z" stroke="#9CD9E3" stroke-width="1.4375" stroke-linecap="round" stroke-linejoin="round"/>
</svg>
