<svg width="274" height="218" viewBox="0 0 274 218" fill="none" xmlns="http://www.w3.org/2000/svg">
<path d="M183.82 129.855L183.558 133.846L183.82 129.855C184.594 129.905 185.447 129.795 186.372 129.515C193.536 127.351 195.61 118.204 190.08 113.161L174.038 98.5342C163.49 90.3733 169.364 73.3938 182.776 73.5727L235.832 74.2802C239.49 74.2673 242.451 71.2977 242.451 67.6364L242.451 53.0011L242.451 52.3358C242.451 48.6666 239.477 45.692 235.808 45.692L194.669 45.692C193.017 45.692 191.408 45.669 189.838 45.6465C182.24 45.5378 175.562 45.4422 169.297 48.0375C161.519 51.2593 154.871 56.7152 150.194 63.7153C145.517 70.7154 143.021 78.9453 143.021 87.3643C143.021 95.7832 145.517 104.013 150.194 111.013C154.871 118.013 161.519 123.469 169.297 126.691C174.793 128.968 180.787 129.656 183.82 129.855Z" fill="#11363C" stroke="#33A1B3" stroke-width="8"/>
<path d="M86.9582 129.419L87.1776 133.41L86.9582 129.419C86.1823 129.462 85.3293 129.342 84.4051 129.052C77.2527 126.811 75.2725 117.641 80.8648 112.656L97.0826 98.1989C107.729 90.1518 102.029 73.1142 88.5996 73.1511L35.467 73.2972C31.8027 73.2458 28.8675 70.2438 28.9063 66.5811L29.0614 51.9466L29.0684 51.2814C29.1073 47.6107 32.1183 44.6666 35.7938 44.7054L76.9862 45.1407C78.6408 45.1582 80.2519 45.1522 81.8236 45.1464C89.4337 45.118 96.1219 45.093 102.368 47.7547C110.123 51.0589 116.722 56.5851 121.331 63.6348C125.94 70.6844 128.353 78.9407 128.263 87.3598C128.174 95.7788 125.587 103.982 120.83 110.933C116.072 117.884 109.357 123.269 101.535 126.409C96.0068 128.628 89.9971 129.252 86.9582 129.419Z" fill="#33A1B3" stroke="#11363C" stroke-width="8"/>
<path d="M150.823 165.707L146.984 165.712L150.823 165.707L150.824 166.373C150.829 170.042 153.806 173.013 157.475 173.008L198.614 172.96C200.266 172.958 201.875 172.979 203.445 173C211.044 173.1 217.721 173.187 223.984 170.585C231.757 167.354 238.399 161.89 243.067 154.884C247.736 147.879 250.223 139.646 250.213 131.227C250.203 122.808 247.697 114.581 243.011 107.586C238.326 100.592 231.672 95.1437 223.891 91.9311C218.392 89.6607 212.397 88.9795 209.364 88.7845C208.59 88.7347 207.737 88.8465 206.812 89.1273C199.65 91.3001 197.588 100.449 203.124 105.485L219.182 120.093C229.74 128.242 223.887 145.228 210.475 145.065L157.418 144.42C153.76 144.437 150.802 147.41 150.806 151.072L150.823 165.707Z" fill="#11363C" stroke="#33A1B3" stroke-width="8"/>
<path d="M39.8038 98.9796C39.8038 91.2559 46.0651 84.9946 53.7888 84.9946C61.5125 84.9946 67.7738 91.2559 67.7738 98.9796V162.131C67.7738 169.855 61.5125 176.116 53.7888 176.116C46.0651 176.116 39.8038 169.855 39.8038 162.131V98.9796Z" fill="#33A1B3" stroke="#11363C" stroke-width="8"/>
</svg>
