<svg width="200" height="46" viewBox="0 0 200 46" fill="none" xmlns="http://www.w3.org/2000/svg">
<g clip-path="url(#clip0_257_477)">
<rect width="200" height="46" rx="6" fill="#33A1B3"/>
<path d="M6.61342 40.5V5.8307H21.3113C22.9064 5.8307 24.3713 6.15623 25.706 6.8073C27.0406 7.45836 28.1963 8.3373 29.1729 9.44412C30.182 10.5509 30.9633 11.788 31.5167 13.1552C32.0701 14.5224 32.3468 15.9222 32.3468 17.3546C32.3468 19.3078 31.8911 21.1633 30.9796 22.9212C30.0681 24.6791 28.8148 26.1114 27.2197 27.2182C25.6246 28.3251 23.7365 28.8785 21.5554 28.8785H13.352V40.5H6.61342ZM13.352 22.97H21.1648C21.9786 22.97 22.711 22.7422 23.3621 22.2864C24.0132 21.8307 24.534 21.1796 24.9247 20.3332C25.3153 19.4543 25.5106 18.4614 25.5106 17.3546C25.5106 16.1501 25.2828 15.1247 24.827 14.2783C24.4038 13.4319 23.8341 12.7971 23.118 12.3739C22.4343 11.9507 21.6856 11.7391 20.8718 11.7391H13.352V22.97ZM36.402 40.5V14.9131H42.9452V40.5H36.402ZM36.402 11.3485V4.8541H42.9452V11.3485H36.402ZM72.6282 40.5H66.0849V26.144C66.0849 24.0931 65.7268 22.5957 65.0107 21.6516C64.2945 20.7076 63.3016 20.2355 62.032 20.2355C61.1531 20.2355 60.2579 20.4634 59.3464 20.9192C58.4674 21.3749 57.6699 22.0097 56.9537 22.8235C56.2375 23.6048 55.7167 24.5163 55.3912 25.558V40.5H48.8479V14.9131H54.7564V19.6496C55.4074 18.5428 56.2375 17.615 57.2467 16.8663C58.2559 16.085 59.4115 15.499 60.7136 15.1084C62.0483 14.6852 63.4481 14.4736 64.913 14.4736C66.5081 14.4736 67.8103 14.7666 68.8194 15.3525C69.8611 15.906 70.6424 16.671 71.1632 17.6476C71.7167 18.5916 72.091 19.6659 72.2863 20.8703C72.5142 22.0748 72.6282 23.2956 72.6282 24.5326V40.5ZM99.5121 14.9131C99.2842 14.6852 98.8611 14.3759 98.2425 13.9853C97.6566 13.5947 96.9241 13.2203 96.0452 12.8622C95.1988 12.5041 94.271 12.1949 93.2619 11.9344C92.2527 11.6415 91.2273 11.495 90.1856 11.495C88.3626 11.495 86.9791 11.8368 86.035 12.5204C85.1235 13.204 84.6678 14.1644 84.6678 15.4014C84.6678 16.3454 84.9608 17.0942 85.5467 17.6476C86.1327 18.201 87.0116 18.673 88.1836 19.0636C89.3555 19.4543 90.8204 19.8775 92.5783 20.3332C94.857 20.8866 96.8265 21.5702 98.4867 22.3841C100.179 23.1653 101.465 24.2071 102.344 25.5092C103.256 26.7788 103.711 28.4715 103.711 30.5875C103.711 32.443 103.37 34.0382 102.686 35.3728C102.002 36.675 101.058 37.733 99.8539 38.5468C98.6495 39.3606 97.2822 39.9629 95.7522 40.3535C94.2222 40.7116 92.5945 40.8906 90.8692 40.8906C89.1439 40.8906 87.4186 40.7116 85.6932 40.3535C83.9679 39.9954 82.3077 39.4908 80.7126 38.8398C79.1175 38.1562 77.6526 37.3423 76.3179 36.3983L79.2965 30.5875C79.5895 30.8805 80.1103 31.2711 80.8591 31.7594C81.6078 32.2152 82.5193 32.6872 83.5935 33.1755C84.6678 33.6312 85.8397 34.0219 87.1093 34.3474C88.3789 34.673 89.6647 34.8357 90.9669 34.8357C92.7899 34.8357 94.1734 34.5265 95.1174 33.9079C96.0615 33.2894 96.5335 32.4105 96.5335 31.2711C96.5335 30.2294 96.1591 29.4156 95.4104 28.8296C94.6617 28.2437 93.62 27.7391 92.2853 27.3159C90.9506 26.8602 89.3718 26.3719 87.5488 25.851C85.3677 25.2325 83.5447 24.5489 82.0798 23.8001C80.6149 23.0189 79.5244 22.0423 78.8082 20.8703C78.092 19.6984 77.7339 18.2335 77.7339 16.4756C77.7339 14.0992 78.2873 12.1135 79.3942 10.5184C80.5335 8.89071 82.0635 7.66996 83.9842 6.85613C85.9048 6.00974 88.0371 5.58655 90.3809 5.58655C92.0086 5.58655 93.5386 5.76559 94.9709 6.12368C96.4358 6.48176 97.8031 6.95379 99.0726 7.53975C100.342 8.12571 101.482 8.7605 102.491 9.44412L99.5121 14.9131ZM123.358 40.9883C121.373 40.9883 119.615 40.5488 118.085 39.6699C116.587 38.7584 115.415 37.5376 114.569 36.0076V50.9008H108.026V14.9131H113.739V19.3078C114.715 17.8103 115.952 16.6384 117.45 15.792C118.947 14.9131 120.656 14.4736 122.577 14.4736C124.302 14.4736 125.881 14.8154 127.314 15.499C128.778 16.1827 130.048 17.143 131.122 18.38C132.197 19.5845 133.027 20.9843 133.613 22.5794C134.231 24.1419 134.54 25.8347 134.54 27.6577C134.54 30.1318 134.052 32.3779 133.075 34.3962C132.131 36.4146 130.813 38.0259 129.12 39.2304C127.46 40.4023 125.539 40.9883 123.358 40.9883ZM121.161 35.4217C122.17 35.4217 123.082 35.2101 123.895 34.7869C124.709 34.3637 125.409 33.794 125.995 33.0778C126.614 32.3291 127.069 31.499 127.362 30.5875C127.688 29.6435 127.851 28.6669 127.851 27.6577C127.851 26.5834 127.672 25.5906 127.314 24.6791C126.988 23.7676 126.5 22.97 125.849 22.2864C125.198 21.5702 124.433 21.0168 123.554 20.6262C122.707 20.2355 121.779 20.0402 120.77 20.0402C120.152 20.0402 119.517 20.1542 118.866 20.382C118.247 20.5774 117.645 20.8703 117.059 21.261C116.473 21.6516 115.952 22.1074 115.497 22.6282C115.074 23.1491 114.764 23.7188 114.569 24.3373V30.3434C114.96 31.2874 115.48 32.1501 116.131 32.9313C116.815 33.7126 117.596 34.3311 118.475 34.7869C119.354 35.2101 120.249 35.4217 121.161 35.4217ZM138.974 40.5V14.9131H145.517V40.5H138.974ZM138.974 11.3485V4.8541H145.517V11.3485H138.974ZM166.655 20.5774C164.669 20.5774 162.895 20.968 161.332 21.7493C159.769 22.498 158.646 23.5885 157.963 25.0209V40.5H151.42V14.9131H157.426V20.382C158.337 18.6242 159.493 17.2406 160.893 16.2315C162.292 15.2223 163.774 14.6689 165.336 14.5713C165.694 14.5713 165.971 14.5713 166.166 14.5713C166.362 14.5713 166.524 14.5875 166.655 14.6201V20.5774ZM181.835 40.9883C179.784 40.9883 177.929 40.6465 176.268 39.9629C174.608 39.2467 173.192 38.2864 172.02 37.0819C170.848 35.8449 169.937 34.4451 169.286 32.8825C168.667 31.2874 168.358 29.6109 168.358 27.853C168.358 25.4115 168.895 23.1816 169.969 21.1633C171.076 19.145 172.639 17.5336 174.657 16.3291C176.708 15.0921 179.117 14.4736 181.884 14.4736C184.683 14.4736 187.076 15.0921 189.062 16.3291C191.048 17.5336 192.561 19.145 193.603 21.1633C194.677 23.1491 195.214 25.2976 195.214 27.6089C195.214 27.9995 195.198 28.4064 195.166 28.8296C195.133 29.2203 195.1 29.5458 195.068 29.8062H175.292C175.422 31.1084 175.796 32.2477 176.415 33.2243C177.066 34.2009 177.88 34.9497 178.856 35.4705C179.865 35.9588 180.94 36.203 182.079 36.203C183.381 36.203 184.602 35.8937 185.741 35.2752C186.913 34.6241 187.711 33.7777 188.134 32.736L193.749 34.2986C193.131 35.6007 192.236 36.7564 191.064 37.7655C189.924 38.7747 188.573 39.5722 187.011 40.1582C185.448 40.7116 183.723 40.9883 181.835 40.9883ZM175.145 25.6557H188.525C188.394 24.3535 188.02 23.2305 187.402 22.2864C186.816 21.3098 186.034 20.5611 185.058 20.0402C184.081 19.4868 182.991 19.2101 181.786 19.2101C180.614 19.2101 179.54 19.4868 178.563 20.0402C177.619 20.5611 176.838 21.3098 176.219 22.2864C175.634 23.2305 175.275 24.3535 175.145 25.6557Z" fill="#11363C"/>
</g>
<rect x="1" y="1" width="198" height="44" rx="5" stroke="#11363C" stroke-width="2"/>
<defs>
<clipPath id="clip0_257_477">
<rect width="200" height="46" rx="6" fill="white"/>
</clipPath>
</defs>
</svg>
