<svg width="25" height="25" viewBox="0 0 25 25" fill="none" xmlns="http://www.w3.org/2000/svg">
<g clip-path="url(#clip0_794_87)">
<path d="M16.9643 6.25C16.9643 5.214 16.4939 4.22043 15.6567 3.48786C14.8195 2.7553 13.684 2.34375 12.5 2.34375C11.316 2.34375 10.1805 2.7553 9.34327 3.48786C8.50606 4.22043 8.03571 5.214 8.03571 6.25C8.03571 7.286 8.50606 8.27957 9.34327 9.01214C10.1805 9.7447 11.316 10.1562 12.5 10.1562C13.684 10.1562 14.8195 9.7447 15.6567 9.01214C16.4939 8.27957 16.9643 7.286 16.9643 6.25ZM5.35714 6.25C5.35714 4.5924 6.10969 3.00269 7.44924 1.83058C8.78878 0.65848 10.6056 0 12.5 0C14.3944 0 16.2112 0.65848 17.5508 1.83058C18.8903 3.00269 19.6429 4.5924 19.6429 6.25C19.6429 7.9076 18.8903 9.49732 17.5508 10.6694C16.2112 11.8415 14.3944 12.5 12.5 12.5C10.6056 12.5 8.78878 11.8415 7.44924 10.6694C6.10969 9.49732 5.35714 7.9076 5.35714 6.25ZM2.75112 22.6562H22.2489C21.7522 19.5654 18.7165 17.1875 15.0502 17.1875H9.94978C6.28348 17.1875 3.24777 19.5654 2.75112 22.6562ZM0 23.5498C0 18.7402 4.45313 14.8438 9.94978 14.8438H15.0502C20.5469 14.8438 25 18.7402 25 23.5498C25 24.3506 24.2578 25 23.3426 25H1.65737C0.742188 25 0 24.3506 0 23.5498Z" fill="#226B77"/>
</g>
<defs>
<clipPath id="clip0_794_87">
<rect width="25" height="25" fill="white"/>
</clipPath>
</defs>
</svg>
