<svg width="25" height="25" viewBox="0 0 25 25" fill="none" xmlns="http://www.w3.org/2000/svg">
<path d="M12.4706 13.7321C13.1576 13.7321 13.7146 13.1743 13.7146 12.4862C13.7146 11.7982 13.1576 11.2404 12.4706 11.2404C11.7835 11.2404 11.2266 11.7982 11.2266 12.4862C11.2266 13.1743 11.7835 13.7321 12.4706 13.7321Z" fill="#226B77"/>
<path d="M17.4462 13.7321C18.1332 13.7321 18.6902 13.1743 18.6902 12.4862C18.6902 11.7982 18.1332 11.2404 17.4462 11.2404C16.7591 11.2404 16.2021 11.7982 16.2021 12.4862C16.2021 13.1743 16.7591 13.7321 17.4462 13.7321Z" fill="#226B77"/>
<path d="M7.49451 13.7321C8.18157 13.7321 8.73854 13.1743 8.73854 12.4862C8.73854 11.7982 8.18157 11.2404 7.49451 11.2404C6.80746 11.2404 6.25049 11.7982 6.25049 12.4862C6.25049 13.1743 6.80746 13.7321 7.49451 13.7321Z" fill="#226B77"/>
<path d="M21.2654 3.67785C19.2243 1.62027 16.5302 0.340386 13.6478 0.0588516C10.7654 -0.222683 7.87517 0.511776 5.47549 2.13561C3.07581 3.75944 1.31703 6.17088 0.502348 8.95419C-0.312329 11.7375 -0.131843 14.7183 1.01269 17.3826C1.13198 17.6302 1.17112 17.909 1.12465 18.18L0.0299113 23.4501C-0.0122659 23.6521 -0.00365326 23.8615 0.0549754 24.0594C0.113604 24.2573 0.220411 24.4375 0.365798 24.5838C0.484981 24.7023 0.626887 24.7954 0.782963 24.8575C0.939038 24.9196 1.10605 24.9494 1.27394 24.9451H1.52274L6.84717 23.8737C7.11779 23.8411 7.39221 23.8797 7.64335 23.9858C10.3037 25.132 13.28 25.3128 16.0592 24.4969C18.8383 23.681 21.2462 21.9196 22.8676 19.5163C24.489 17.1131 25.2224 14.2185 24.9412 11.3318C24.6601 8.44506 23.3821 5.747 21.3276 3.70277L21.2654 3.67785ZM22.298 14.0935C22.0548 15.581 21.4778 16.994 20.6105 18.2259C19.7432 19.4579 18.6083 20.4768 17.291 21.206C15.9737 21.9352 14.5084 22.3557 13.0054 22.4358C11.5024 22.5159 10.0008 22.2535 8.61369 21.6684C8.12173 21.4589 7.59326 21.3488 7.05866 21.3445C6.82513 21.3462 6.59213 21.367 6.362 21.4068L2.85385 22.117L3.56295 18.6036C3.70417 17.8427 3.61313 17.0568 3.3017 16.3485C2.7175 14.9593 2.45552 13.4555 2.5355 11.9503C2.61547 10.445 3.03531 8.97754 3.76341 7.65827C4.49152 6.339 5.50892 5.20231 6.73906 4.33375C7.96921 3.46518 9.38004 2.88735 10.8654 2.64376C12.4245 2.38751 14.0221 2.50668 15.5261 2.99144C17.0301 3.4762 18.3972 4.31261 19.5144 5.43148C20.6316 6.55035 21.4668 7.91953 21.9508 9.42577C22.4349 10.932 22.5539 12.532 22.298 14.0935Z" fill="#226B77"/>
</svg>
