<svg width="20" height="21" viewBox="0 0 20 21" fill="none" xmlns="http://www.w3.org/2000/svg">
<path d="M15.5817 9.23723C15.2003 9.23723 14.884 8.92095 14.884 8.53956V6.67909C14.884 3.74886 14.0561 1.79537 10.0003 1.79537C5.94445 1.79537 5.11654 3.74886 5.11654 6.67909V8.53956C5.11654 8.92095 4.80026 9.23723 4.41887 9.23723C4.03747 9.23723 3.72119 8.92095 3.72119 8.53956V6.67909C3.72119 3.98142 4.37235 0.400024 10.0003 0.400024C15.6282 0.400024 16.2793 3.98142 16.2793 6.67909V8.53956C16.2793 8.92095 15.9631 9.23723 15.5817 9.23723Z" fill="#226B77"/>
<path d="M9.99982 17.1442C8.3347 17.1442 6.97656 15.786 6.97656 14.1209C6.97656 12.4558 8.3347 11.0977 9.99982 11.0977C11.6649 11.0977 13.0231 12.4558 13.0231 14.1209C13.0231 15.786 11.6649 17.1442 9.99982 17.1442ZM9.99982 12.493C9.1068 12.493 8.37191 13.2279 8.37191 14.1209C8.37191 15.0139 9.1068 15.7488 9.99982 15.7488C10.8928 15.7488 11.6277 15.0139 11.6277 14.1209C11.6277 13.2279 10.8928 12.493 9.99982 12.493Z" fill="#226B77"/>
<path d="M14.6512 20.4001H5.34884C1.24651 20.4001 0 19.1535 0 15.0512V13.1908C0 9.08843 1.24651 7.84192 5.34884 7.84192H14.6512C18.7535 7.84192 20 9.08843 20 13.1908V15.0512C20 19.1535 18.7535 20.4001 14.6512 20.4001ZM5.34884 9.23727C2.0186 9.23727 1.39535 9.86983 1.39535 13.1908V15.0512C1.39535 18.3722 2.0186 19.0047 5.34884 19.0047H14.6512C17.9814 19.0047 18.6047 18.3722 18.6047 15.0512V13.1908C18.6047 9.86983 17.9814 9.23727 14.6512 9.23727H5.34884Z" fill="#226B77"/>
</svg>
