<svg width="25" height="25" viewBox="0 0 25 25" fill="none" xmlns="http://www.w3.org/2000/svg">
<path d="M12.5001 22.4376C12.1911 22.4383 11.885 22.378 11.5994 22.26C11.3139 22.142 11.0544 21.9687 10.8361 21.7501L2.78919 13.7032C2.15352 13.0606 1.65208 12.298 1.31407 11.4597C0.97607 10.6214 0.808268 9.72418 0.820442 8.82039C0.826567 7.99214 0.996035 7.17323 1.31914 6.41058C1.64224 5.64793 2.11263 4.95651 2.70337 4.37594C3.29411 3.79536 3.99358 3.33703 4.76172 3.02721C5.52986 2.71738 6.35159 2.56214 7.17982 2.57039C8.02287 2.5619 8.85905 2.72279 9.63876 3.04353C10.4185 3.36427 11.1258 3.83832 11.7189 4.43758L12.5001 5.21883L13.1408 4.5782C14.2469 3.44271 15.7271 2.74657 17.3072 2.61873C18.8873 2.49088 20.4602 2.94 21.7345 3.88289C22.4599 4.44152 23.058 5.14829 23.4889 5.95614C23.9198 6.76398 24.1736 7.65436 24.2335 8.56798C24.2933 9.4816 24.1579 10.3975 23.8361 11.2547C23.5143 12.1118 23.0136 12.8906 22.3673 13.5391L14.1642 21.7501C13.9458 21.9687 13.6864 22.142 13.4008 22.26C13.1152 22.378 12.8091 22.4383 12.5001 22.4376ZM7.14857 4.12508C5.90679 4.12381 4.71323 4.60572 3.82044 5.46883C3.36528 5.90675 3.00332 6.43215 2.7563 7.01346C2.50927 7.59477 2.38228 8.22002 2.38294 8.85164C2.37609 9.54641 2.50723 10.2356 2.76874 10.8794C3.03025 11.5231 3.41693 12.1085 3.90638 12.6016L11.9533 20.6485C12.0259 20.7217 12.1123 20.7799 12.2075 20.8195C12.3027 20.8592 12.4048 20.8796 12.5079 20.8796C12.6111 20.8796 12.7132 20.8592 12.8084 20.8195C12.9036 20.7799 12.99 20.7217 13.0626 20.6485L21.2736 12.4298C21.7555 11.9376 22.1279 11.349 22.3662 10.7027C22.6046 10.0564 22.7034 9.367 22.6564 8.67976C22.6147 7.98548 22.4234 7.3084 22.0958 6.69488C21.7681 6.08136 21.3117 5.54587 20.7579 5.12508C19.7862 4.40859 18.5871 4.06981 17.384 4.17186C16.181 4.27391 15.0561 4.80982 14.2189 5.67976L13.0548 6.87508C12.9822 6.9483 12.8958 7.00642 12.8006 7.04608C12.7054 7.08575 12.6033 7.10617 12.5001 7.10617C12.397 7.10617 12.2949 7.08575 12.1997 7.04608C12.1045 7.00642 12.0181 6.9483 11.9454 6.87508L10.6173 5.54695C9.70255 4.64014 8.46787 4.12943 7.17982 4.12508H7.14857Z" fill="#226B77"/>
</svg>
