<svg width="20" height="19" viewBox="0 0 20 19" fill="none" xmlns="http://www.w3.org/2000/svg">
<path d="M19.3025 5.05123H13.7211C13.3397 5.05123 13.0234 4.73495 13.0234 4.35356C13.0234 3.97216 13.3397 3.65588 13.7211 3.65588H19.3025C19.6839 3.65588 20.0002 3.97216 20.0002 4.35356C20.0002 4.73495 19.6839 5.05123 19.3025 5.05123Z" fill="#226B77"/>
<path d="M4.4186 5.05123H0.697674C0.316279 5.05123 0 4.73495 0 4.35356C0 3.97216 0.316279 3.65588 0.697674 3.65588H4.4186C4.8 3.65588 5.11628 3.97216 5.11628 4.35356C5.11628 4.73495 4.8 5.05123 4.4186 5.05123Z" fill="#226B77"/>
<path d="M8.13952 8.307C5.96278 8.307 4.18604 6.53026 4.18604 4.35351C4.18604 2.17677 5.96278 0.400024 8.13952 0.400024C10.3163 0.400024 12.093 2.17677 12.093 4.35351C12.093 6.53026 10.3163 8.307 8.13952 8.307ZM8.13952 1.79537C6.72557 1.79537 5.58138 2.93956 5.58138 4.35351C5.58138 5.76747 6.72557 6.91165 8.13952 6.91165C9.55348 6.91165 10.6977 5.76747 10.6977 4.35351C10.6977 2.93956 9.55348 1.79537 8.13952 1.79537Z" fill="#226B77"/>
<path d="M19.3024 15.2838H15.5815C15.2001 15.2838 14.8838 14.9675 14.8838 14.5861C14.8838 14.2047 15.2001 13.8884 15.5815 13.8884H19.3024C19.6838 13.8884 20.0001 14.2047 20.0001 14.5861C20.0001 14.9675 19.6838 15.2838 19.3024 15.2838Z" fill="#226B77"/>
<path d="M6.27907 15.2838H0.697674C0.316279 15.2838 0 14.9675 0 14.5861C0 14.2047 0.316279 13.8884 0.697674 13.8884H6.27907C6.66047 13.8884 6.97674 14.2047 6.97674 14.5861C6.97674 14.9675 6.66047 15.2838 6.27907 15.2838Z" fill="#226B77"/>
<path d="M11.8602 18.5395C9.68348 18.5395 7.90674 16.7628 7.90674 14.5861C7.90674 12.4093 9.68348 10.6326 11.8602 10.6326C14.037 10.6326 15.8137 12.4093 15.8137 14.5861C15.8137 16.7628 14.037 18.5395 11.8602 18.5395ZM11.8602 12.0279C10.4463 12.0279 9.30209 13.1721 9.30209 14.5861C9.30209 16 10.4463 17.1442 11.8602 17.1442C13.2742 17.1442 14.4184 16 14.4184 14.5861C14.4184 13.1721 13.2742 12.0279 11.8602 12.0279Z" fill="#226B77"/>
</svg>
