<svg width="25" height="25" viewBox="0 0 25 25" fill="none" xmlns="http://www.w3.org/2000/svg">
<path d="M21.875 2.67857C22.3047 2.67857 22.6562 3.08036 22.6562 3.57143V21.4174L22.4121 21.0547L15.7715 11.2333C15.5518 10.904 15.2051 10.7143 14.8438 10.7143C14.4824 10.7143 14.1406 10.904 13.916 11.2333L9.86328 17.2266L8.37402 14.8438C8.1543 14.4922 7.80273 14.2857 7.42188 14.2857C7.04102 14.2857 6.68945 14.4922 6.46973 14.8493L2.56348 21.0993L2.34375 21.4453V21.4286V3.57143C2.34375 3.08036 2.69531 2.67857 3.125 2.67857H21.875ZM3.125 0C1.40137 0 0 1.60156 0 3.57143V21.4286C0 23.3984 1.40137 25 3.125 25H21.875C23.5986 25 25 23.3984 25 21.4286V3.57143C25 1.60156 23.5986 0 21.875 0H3.125ZM7.03125 10.7143C7.33904 10.7143 7.64381 10.645 7.92816 10.5104C8.21252 10.3758 8.47089 10.1785 8.68853 9.92975C8.90617 9.68102 9.07881 9.38574 9.19659 9.06076C9.31438 8.73578 9.375 8.38747 9.375 8.03571C9.375 7.68396 9.31438 7.33565 9.19659 7.01067C9.07881 6.68569 8.90617 6.39041 8.68853 6.14168C8.47089 5.89295 8.21252 5.69565 7.92816 5.56104C7.64381 5.42643 7.33904 5.35714 7.03125 5.35714C6.72346 5.35714 6.41869 5.42643 6.13434 5.56104C5.84998 5.69565 5.59161 5.89295 5.37397 6.14168C5.15633 6.39041 4.98369 6.68569 4.86591 7.01067C4.74812 7.33565 4.6875 7.68396 4.6875 8.03571C4.6875 8.38747 4.74812 8.73578 4.86591 9.06076C4.98369 9.38574 5.15633 9.68102 5.37397 9.92975C5.59161 10.1785 5.84998 10.3758 6.13434 10.5104C6.41869 10.645 6.72346 10.7143 7.03125 10.7143Z" fill="#226B77"/>
</svg>
