<svg width="50" height="50" viewBox="0 0 50 50" fill="none" xmlns="http://www.w3.org/2000/svg">
<g filter="url(#filter0_d_474_7726)">
<circle cx="25" cy="25" r="15" fill="white"/>
<circle cx="25" cy="25" r="14" stroke="#141414" stroke-opacity="0.7" stroke-width="2"/>
<path d="M33.8889 26.1111H16.1111C15.5037 26.1111 15 25.6074 15 25C15 24.3926 15.5037 23.8889 16.1111 23.8889H33.8889C34.4963 23.8889 35 24.3926 35 25C35 25.6074 34.4963 26.1111 33.8889 26.1111Z" fill="#141414" fill-opacity="0.7"/>
<path d="M25.0003 35C24.3929 35 23.8892 34.4963 23.8892 33.8889V16.1111C23.8892 15.5037 24.3929 15 25.0003 15C25.6077 15 26.1114 15.5037 26.1114 16.1111V33.8889C26.1114 34.4963 25.6077 35 25.0003 35Z" fill="#141414" fill-opacity="0.7"/>
</g>
<defs>
<filter id="filter0_d_474_7726" x="0" y="0" width="50" height="50" filterUnits="userSpaceOnUse" color-interpolation-filters="sRGB">
<feFlood flood-opacity="0" result="BackgroundImageFix"/>
<feColorMatrix in="SourceAlpha" type="matrix" values="0 0 0 0 0 0 0 0 0 0 0 0 0 0 0 0 0 0 127 0" result="hardAlpha"/>
<feOffset/>
<feGaussianBlur stdDeviation="5"/>
<feColorMatrix type="matrix" values="0 0 0 0 0.198425 0 0 0 0 0.630709 0 0 0 0 0.701575 0 0 0 1 0"/>
<feBlend mode="normal" in2="BackgroundImageFix" result="effect1_dropShadow_474_7726"/>
<feBlend mode="normal" in="SourceGraphic" in2="effect1_dropShadow_474_7726" result="shape"/>
</filter>
</defs>
</svg>
