<svg width="51" height="50" viewBox="0 0 51 50" fill="none" xmlns="http://www.w3.org/2000/svg">
<g filter="url(#filter0_d_534_1820)">
<circle cx="25.8555" cy="25" r="15" fill="white"/>
<circle cx="25.8555" cy="25" r="14" stroke="#141414" stroke-opacity="0.7" stroke-width="2"/>
<path d="M34.7444 26.1111H16.9666C16.3592 26.1111 15.8555 25.6074 15.8555 25C15.8555 24.3926 16.3592 23.8889 16.9666 23.8889H34.7444C35.3518 23.8889 35.8555 24.3926 35.8555 25C35.8555 25.6074 35.3518 26.1111 34.7444 26.1111Z" fill="#141414" fill-opacity="0.7"/>
<path d="M25.8553 35C25.2478 35 24.7441 34.4963 24.7441 33.8889V16.1111C24.7441 15.5037 25.2478 15 25.8553 15C26.4627 15 26.9664 15.5037 26.9664 16.1111V33.8889C26.9664 34.4963 26.4627 35 25.8553 35Z" fill="#141414" fill-opacity="0.7"/>
</g>
<defs>
<filter id="filter0_d_534_1820" x="0.855469" y="0" width="50" height="50" filterUnits="userSpaceOnUse" color-interpolation-filters="sRGB">
<feFlood flood-opacity="0" result="BackgroundImageFix"/>
<feColorMatrix in="SourceAlpha" type="matrix" values="0 0 0 0 0 0 0 0 0 0 0 0 0 0 0 0 0 0 127 0" result="hardAlpha"/>
<feOffset/>
<feGaussianBlur stdDeviation="5"/>
<feColorMatrix type="matrix" values="0 0 0 0 0.198425 0 0 0 0 0.630709 0 0 0 0 0.701575 0 0 0 1 0"/>
<feBlend mode="normal" in2="BackgroundImageFix" result="effect1_dropShadow_534_1820"/>
<feBlend mode="normal" in="SourceGraphic" in2="effect1_dropShadow_534_1820" result="shape"/>
</filter>
</defs>
</svg>
