<svg width="30" height="30" viewBox="0 0 30 30" fill="none" xmlns="http://www.w3.org/2000/svg">
<circle cx="15" cy="15" r="15" fill="white"/>
<circle cx="15" cy="15" r="14" stroke="#141414" stroke-opacity="0.7" stroke-width="2"/>
<path d="M23.8889 16.1111H6.11111C5.5037 16.1111 5 15.6074 5 15C5 14.3926 5.5037 13.8889 6.11111 13.8889H23.8889C24.4963 13.8889 25 14.3926 25 15C25 15.6074 24.4963 16.1111 23.8889 16.1111Z" fill="#141414" fill-opacity="0.7"/>
<path d="M15.0003 25C14.3929 25 13.8892 24.4963 13.8892 23.8889V6.11111C13.8892 5.5037 14.3929 5 15.0003 5C15.6077 5 16.1114 5.5037 16.1114 6.11111V23.8889C16.1114 24.4963 15.6077 25 15.0003 25Z" fill="#141414" fill-opacity="0.7"/>
</svg>
