<svg width="20" height="20" viewBox="0 0 20 20" fill="none" xmlns="http://www.w3.org/2000/svg">
<path d="M18.1265 16.7202L13.2796 11.8726C14.0607 10.7992 14.4809 9.50553 14.4796 8.17803C14.4796 4.70342 11.6526 1.87646 8.17803 1.87646C4.70342 1.87646 1.87646 4.70342 1.87646 8.17803C1.87646 11.6526 4.70342 14.4796 8.17803 14.4796C9.50553 14.4809 10.7992 14.0607 11.8726 13.2796L16.7202 18.1265L18.1265 16.7202ZM8.17803 12.4894C7.32522 12.4894 6.49154 12.2366 5.78242 11.7629C5.0733 11.2891 4.52059 10.6157 4.1942 9.82784C3.86781 9.03996 3.78239 8.17299 3.94875 7.33656C4.1151 6.50013 4.52576 5.73182 5.12879 5.12879C5.73182 4.52576 6.50013 4.1151 7.33656 3.94875C8.17299 3.78239 9.03996 3.86781 9.82784 4.1942C10.6157 4.52059 11.2891 5.0733 11.7629 5.78242C12.2366 6.49154 12.4894 7.32522 12.4894 8.17803C12.488 9.32105 12.0334 10.4169 11.2251 11.2251C10.4169 12.0334 9.32105 12.488 8.17803 12.4894Z" fill="#141414" fill-opacity="0.7"/>
</svg>
