<svg width="15" height="16" viewBox="0 0 15 16" fill="none" xmlns="http://www.w3.org/2000/svg">
<g clip-path="url(#clip0_794_2387)">
<path d="M10.1786 4.25C10.1786 3.6284 9.89637 3.03226 9.39404 2.59272C8.89171 2.15318 8.2104 1.90625 7.5 1.90625C6.7896 1.90625 6.10829 2.15318 5.60596 2.59272C5.10363 3.03226 4.82143 3.6284 4.82143 4.25C4.82143 4.8716 5.10363 5.46774 5.60596 5.90728C6.10829 6.34682 6.7896 6.59375 7.5 6.59375C8.2104 6.59375 8.89171 6.34682 9.39404 5.90728C9.89637 5.46774 10.1786 4.8716 10.1786 4.25ZM3.21429 4.25C3.21429 3.25544 3.66581 2.30161 4.46954 1.59835C5.27327 0.895088 6.36336 0.5 7.5 0.5C8.63664 0.5 9.72673 0.895088 10.5305 1.59835C11.3342 2.30161 11.7857 3.25544 11.7857 4.25C11.7857 5.24456 11.3342 6.19839 10.5305 6.90165C9.72673 7.60491 8.63664 8 7.5 8C6.36336 8 5.27327 7.60491 4.46954 6.90165C3.66581 6.19839 3.21429 5.24456 3.21429 4.25ZM1.65067 14.0938H13.3493C13.0513 12.2393 11.2299 10.8125 9.03013 10.8125H5.96987C3.77009 10.8125 1.94866 12.2393 1.65067 14.0938ZM0 14.6299C0 11.7441 2.67188 9.40625 5.96987 9.40625H9.03013C12.3281 9.40625 15 11.7441 15 14.6299C15 15.1104 14.5547 15.5 14.0056 15.5H0.99442C0.445313 15.5 0 15.1104 0 14.6299Z" fill="#141414" fill-opacity="0.7"/>
</g>
<defs>
<clipPath id="clip0_794_2387">
<rect width="15" height="15" fill="white" transform="translate(0 0.5)"/>
</clipPath>
</defs>
</svg>
