<svg width="15" height="15" viewBox="0 0 15 15" fill="none" xmlns="http://www.w3.org/2000/svg">
<path d="M10.6317 12.6315C11.7363 12.6315 12.6317 11.7361 12.6317 10.6315V6.71044V3.55254V1.97359C12.6317 1.75559 12.8085 1.57886 13.0265 1.57886V1.57886C13.2445 1.57886 13.4212 1.75559 13.4212 1.97359V11.421C13.4212 12.5255 12.5258 13.421 11.4212 13.421H1.97384C1.75583 13.421 1.5791 13.2442 1.5791 13.0262V13.0262C1.5791 12.8082 1.75583 12.6315 1.97384 12.6315H3.94752H6.31594H10.6317Z" fill="#141414" fill-opacity="0.7"/>
<path d="M12.2103 14.2106C13.3149 14.2106 14.2103 13.3152 14.2103 12.2106V8.28954V5.13164V3.5527C14.2103 3.33469 14.3871 3.15796 14.6051 3.15796V3.15796C14.8231 3.15796 14.9998 3.33469 14.9998 3.5527V13.0001C14.9998 14.1046 14.1044 15.0001 12.9998 15.0001H3.55245C3.33444 15.0001 3.15771 14.8233 3.15771 14.6053V14.6053C3.15771 14.3873 3.33444 14.2106 3.55245 14.2106H5.52614H7.89456H12.2103Z" fill="#141414" fill-opacity="0.7"/>
<path d="M10.3618 1.2688C10.5654 1.2688 10.7319 1.45912 10.7319 1.69173V10.1451L10.6163 9.97327L7.4707 5.32102C7.36662 5.16506 7.20241 5.07519 7.03125 5.07519C6.86009 5.07519 6.69819 5.16506 6.5918 5.32102L4.67208 8.15995L3.96664 7.03125C3.86256 6.86472 3.69603 6.76692 3.51562 6.76692C3.33522 6.76692 3.16869 6.86472 3.06461 7.03389L1.21428 9.99442L1.1102 10.1583V10.1504V1.69173C1.1102 1.45912 1.27673 1.2688 1.48026 1.2688H10.3618ZM1.48026 0C0.663806 0 0 0.758635 0 1.69173V10.1504C0 11.0835 0.663806 11.8421 1.48026 11.8421H10.3618C11.1783 11.8421 11.8421 11.0835 11.8421 10.1504V1.69173C11.8421 0.758635 11.1783 0 10.3618 0H1.48026ZM3.33059 5.07519C3.47639 5.07519 3.62075 5.04237 3.75545 4.97861C3.89014 4.91484 4.01253 4.82138 4.11562 4.70357C4.21871 4.58575 4.30049 4.44588 4.35628 4.29194C4.41207 4.138 4.44079 3.97301 4.44079 3.80639C4.44079 3.63977 4.41207 3.47478 4.35628 3.32084C4.30049 3.16691 4.21871 3.02703 4.11562 2.90922C4.01253 2.7914 3.89014 2.69794 3.75545 2.63418C3.62075 2.57041 3.47639 2.53759 3.33059 2.53759C3.1848 2.53759 3.04043 2.57041 2.90574 2.63418C2.77104 2.69794 2.64866 2.7914 2.54556 2.90922C2.44247 3.02703 2.3607 3.16691 2.3049 3.32084C2.24911 3.47478 2.22039 3.63977 2.22039 3.80639C2.22039 3.97301 2.24911 4.138 2.3049 4.29194C2.3607 4.44588 2.44247 4.58575 2.54556 4.70357C2.64866 4.82138 2.77104 4.91484 2.90574 4.97861C3.04043 5.04237 3.1848 5.07519 3.33059 5.07519Z" fill="#141414" fill-opacity="0.7"/>
</svg>
