<svg width="30" height="30" viewBox="0 0 30 30" fill="none" xmlns="http://www.w3.org/2000/svg">
<rect width="30" height="30" rx="15" fill="#F2F2F2"/>
<path d="M12 8.00245C11.7348 8.00245 11.4804 8.10781 11.2929 8.29534C11.1054 8.48288 11 8.73723 11 9.00245C11 9.26767 11.1054 9.52202 11.2929 9.70956C11.4804 9.89709 11.7348 10.0025 12 10.0025C12.2652 10.0025 12.5196 9.89709 12.7071 9.70956C12.8946 9.52202 13 9.26767 13 9.00245C13 8.73723 12.8946 8.48288 12.7071 8.29534C12.5196 8.10781 12.2652 8.00245 12 8.00245ZM9.17 8.00245C9.3766 7.41692 9.75974 6.90988 10.2666 6.55124C10.7735 6.1926 11.3791 6 12 6C12.6209 6 13.2265 6.1926 13.7334 6.55124C14.2403 6.90988 14.6234 7.41692 14.83 8.00245H22C22.2652 8.00245 22.5196 8.10781 22.7071 8.29534C22.8946 8.48288 23 8.73723 23 9.00245C23 9.26767 22.8946 9.52202 22.7071 9.70956C22.5196 9.89709 22.2652 10.0025 22 10.0025H14.83C14.6234 10.588 14.2403 11.095 13.7334 11.4537C13.2265 11.8123 12.6209 12.0049 12 12.0049C11.3791 12.0049 10.7735 11.8123 10.2666 11.4537C9.75974 11.095 9.3766 10.588 9.17 10.0025H8C7.73478 10.0025 7.48043 9.89709 7.29289 9.70956C7.10536 9.52202 7 9.26767 7 9.00245C7 8.73723 7.10536 8.48288 7.29289 8.29534C7.48043 8.10781 7.73478 8.00245 8 8.00245H9.17ZM18 14.0025C17.7348 14.0025 17.4804 14.1078 17.2929 14.2953C17.1054 14.4829 17 14.7372 17 15.0025C17 15.2677 17.1054 15.522 17.2929 15.7096C17.4804 15.8971 17.7348 16.0025 18 16.0025C18.2652 16.0025 18.5196 15.8971 18.7071 15.7096C18.8946 15.522 19 15.2677 19 15.0025C19 14.7372 18.8946 14.4829 18.7071 14.2953C18.5196 14.1078 18.2652 14.0025 18 14.0025ZM15.17 14.0025C15.3766 13.4169 15.7597 12.9099 16.2666 12.5512C16.7735 12.1926 17.3791 12 18 12C18.6209 12 19.2265 12.1926 19.7334 12.5512C20.2403 12.9099 20.6234 13.4169 20.83 14.0025H22C22.2652 14.0025 22.5196 14.1078 22.7071 14.2953C22.8946 14.4829 23 14.7372 23 15.0025C23 15.2677 22.8946 15.522 22.7071 15.7096C22.5196 15.8971 22.2652 16.0025 22 16.0025H20.83C20.6234 16.588 20.2403 17.095 19.7334 17.4537C19.2265 17.8123 18.6209 18.0049 18 18.0049C17.3791 18.0049 16.7735 17.8123 16.2666 17.4537C15.7597 17.095 15.3766 16.588 15.17 16.0025H8C7.73478 16.0025 7.48043 15.8971 7.29289 15.7096C7.10536 15.522 7 15.2677 7 15.0025C7 14.7372 7.10536 14.4829 7.29289 14.2953C7.48043 14.1078 7.73478 14.0025 8 14.0025H15.17ZM12 20.0025C11.7348 20.0025 11.4804 20.1078 11.2929 20.2953C11.1054 20.4829 11 20.7372 11 21.0025C11 21.2677 11.1054 21.522 11.2929 21.7096C11.4804 21.8971 11.7348 22.0025 12 22.0025C12.2652 22.0025 12.5196 21.8971 12.7071 21.7096C12.8946 21.522 13 21.2677 13 21.0025C13 20.7372 12.8946 20.4829 12.7071 20.2953C12.5196 20.1078 12.2652 20.0025 12 20.0025ZM9.17 20.0025C9.3766 19.4169 9.75974 18.9099 10.2666 18.5512C10.7735 18.1926 11.3791 18 12 18C12.6209 18 13.2265 18.1926 13.7334 18.5512C14.2403 18.9099 14.6234 19.4169 14.83 20.0025H22C22.2652 20.0025 22.5196 20.1078 22.7071 20.2953C22.8946 20.4829 23 20.7372 23 21.0025C23 21.2677 22.8946 21.522 22.7071 21.7096C22.5196 21.8971 22.2652 22.0025 22 22.0025H14.83C14.6234 22.588 14.2403 23.095 13.7334 23.4537C13.2265 23.8123 12.6209 24.0049 12 24.0049C11.3791 24.0049 10.7735 23.8123 10.2666 23.4537C9.75974 23.095 9.3766 22.588 9.17 22.0025H8C7.73478 22.0025 7.48043 21.8971 7.29289 21.7096C7.10536 21.522 7 21.2677 7 21.0025C7 20.7372 7.10536 20.4829 7.29289 20.2953C7.48043 20.1078 7.73478 20.0025 8 20.0025H9.17Z" fill="#141414" fill-opacity="0.7"/>
</svg>
