<svg width="30" height="30" viewBox="0 0 30 30" fill="none" xmlns="http://www.w3.org/2000/svg">
<rect width="30" height="30" rx="15" fill="#F2F2F2"/>
<g clip-path="url(#clip0_487_3507)">
<path d="M15.0001 6C14.2889 6 13.7144 6.50273 13.7144 7.125V7.7543C10.8014 8.15859 8.57151 10.3664 8.57151 13.0312V14.2055C8.57151 15.8016 7.94874 17.352 6.81169 18.5965L6.21302 19.2539C5.97999 19.507 5.93579 19.8551 6.09651 20.1469C6.25722 20.4387 6.59472 20.625 6.96436 20.625H23.0358C23.4054 20.625 23.7429 20.4387 23.9036 20.1469C24.0644 19.8551 24.0202 19.507 23.7871 19.2539L23.1885 18.6C22.0514 17.352 21.4286 15.8016 21.4286 14.2055V13.0312C21.4286 10.3664 19.1987 8.15859 16.2858 7.7543V7.125C16.2858 6.50273 15.7112 6 15.0001 6ZM15.0001 9.375H15.3215C17.6278 9.375 19.5001 11.0133 19.5001 13.0312V14.2055C19.5001 15.8895 20.0586 17.5312 21.0952 18.9375H8.90499C9.9416 17.5312 10.5001 15.8895 10.5001 14.2055V13.0312C10.5001 11.0133 12.3724 9.375 14.6786 9.375H15.0001ZM17.5715 21.75H15.0001H12.4286C12.4286 22.3477 12.6978 22.9207 13.18 23.3426C13.6621 23.7645 14.317 24 15.0001 24C15.6831 24 16.338 23.7645 16.8202 23.3426C17.3023 22.9207 17.5715 22.3477 17.5715 21.75Z" fill="#141414" fill-opacity="0.7"/>
</g>
<circle cx="23.9996" cy="3.6002" r="2.4" fill="#226B77"/>
<defs>
<clipPath id="clip0_487_3507">
<rect width="18" height="18" fill="white" transform="translate(6 6)"/>
</clipPath>
</defs>
</svg>
