<svg width="50" height="50" viewBox="0 0 50 50" fill="none" xmlns="http://www.w3.org/2000/svg">
<rect width="50" height="50" rx="25" fill="#F2F2F2"/>
<g clip-path="url(#clip0_487_4431)">
<path d="M25.0005 10C23.8152 10 22.8576 10.8379 22.8576 11.875V12.9238C18.0027 13.5977 14.2862 17.2773 14.2862 21.7188V23.6758C14.2862 26.3359 13.2482 28.9199 11.3531 30.9941L10.3554 32.0898C9.96697 32.5117 9.89331 33.0918 10.1612 33.5781C10.429 34.0645 10.9915 34.375 11.6076 34.375H38.3933C39.0094 34.375 39.5719 34.0645 39.8397 33.5781C40.1076 33.0918 40.0339 32.5117 39.6455 32.0898L38.6478 31C36.7527 28.9199 35.7147 26.3359 35.7147 23.6758V21.7188C35.7147 17.2773 31.9982 13.5977 27.1433 12.9238V11.875C27.1433 10.8379 26.1857 10 25.0005 10ZM25.0005 15.625H25.5362C29.3799 15.625 32.5005 18.3555 32.5005 21.7188V23.6758C32.5005 26.4824 33.4313 29.2188 35.1589 31.5625H14.842C16.5697 29.2188 17.5005 26.4824 17.5005 23.6758V21.7188C17.5005 18.3555 20.621 15.625 24.4647 15.625H25.0005ZM29.2862 36.25H25.0005H20.7147C20.7147 37.2461 21.1634 38.2012 21.967 38.9043C22.7705 39.6074 23.8621 40 25.0005 40C26.1388 40 27.2304 39.6074 28.0339 38.9043C28.8375 38.2012 29.2862 37.2461 29.2862 36.25Z" fill="#141414" fill-opacity="0.7"/>
</g>
<circle cx="40" cy="6" r="4" fill="#226B77"/>
<defs>
<clipPath id="clip0_487_4431">
<rect width="30" height="30" fill="white" transform="translate(10 10)"/>
</clipPath>
</defs>
</svg>
