<svg width="20" height="20" viewBox="0 0 20 20" fill="none" xmlns="http://www.w3.org/2000/svg">
<path d="M7.77778 16C8.07246 16 8.35508 15.8946 8.56345 15.7071C8.77183 15.5196 8.88889 15.2652 8.88889 15V9C8.88889 8.73478 8.77183 8.48043 8.56345 8.29289C8.35508 8.10536 8.07246 8 7.77778 8C7.48309 8 7.20048 8.10536 6.9921 8.29289C6.78373 8.48043 6.66667 8.73478 6.66667 9V15C6.66667 15.2652 6.78373 15.5196 6.9921 15.7071C7.20048 15.8946 7.48309 16 7.77778 16ZM18.8889 4H14.4444V3C14.4444 2.20435 14.0933 1.44129 13.4681 0.87868C12.843 0.316071 11.9952 0 11.1111 0H8.88889C8.00483 0 7.15699 0.316071 6.53187 0.87868C5.90674 1.44129 5.55556 2.20435 5.55556 3V4H1.11111C0.816426 4 0.533811 4.10536 0.325437 4.29289C0.117063 4.48043 0 4.73478 0 5C0 5.26522 0.117063 5.51957 0.325437 5.70711C0.533811 5.89464 0.816426 6 1.11111 6H2.22222V17C2.22222 17.7956 2.57341 18.5587 3.19853 19.1213C3.82365 19.6839 4.6715 20 5.55556 20H14.4444C15.3285 20 16.1763 19.6839 16.8015 19.1213C17.4266 18.5587 17.7778 17.7956 17.7778 17V6H18.8889C19.1836 6 19.4662 5.89464 19.6746 5.70711C19.8829 5.51957 20 5.26522 20 5C20 4.73478 19.8829 4.48043 19.6746 4.29289C19.4662 4.10536 19.1836 4 18.8889 4ZM7.77778 3C7.77778 2.73478 7.89484 2.48043 8.10321 2.29289C8.31159 2.10536 8.5942 2 8.88889 2H11.1111C11.4058 2 11.6884 2.10536 11.8968 2.29289C12.1052 2.48043 12.2222 2.73478 12.2222 3V4H7.77778V3ZM15.5556 17C15.5556 17.2652 15.4385 17.5196 15.2301 17.7071C15.0217 17.8946 14.7391 18 14.4444 18H5.55556C5.26087 18 4.97826 17.8946 4.76988 17.7071C4.56151 17.5196 4.44444 17.2652 4.44444 17V6H15.5556V17ZM12.2222 16C12.5169 16 12.7995 15.8946 13.0079 15.7071C13.2163 15.5196 13.3333 15.2652 13.3333 15V9C13.3333 8.73478 13.2163 8.48043 13.0079 8.29289C12.7995 8.10536 12.5169 8 12.2222 8C11.9275 8 11.6449 8.10536 11.4365 8.29289C11.2282 8.48043 11.1111 8.73478 11.1111 9V15C11.1111 15.2652 11.2282 15.5196 11.4365 15.7071C11.6449 15.8946 11.9275 16 12.2222 16Z" fill="#141414" fill-opacity="0.7"/>
</svg>
