<svg width="20" height="20" viewBox="0 0 20 20" fill="none" xmlns="http://www.w3.org/2000/svg">
<path d="M17.3596 2.16405L17.8359 2.64036C18.206 3.01038 18.206 3.60872 17.8359 3.97481L16.6904 5.12424L14.8758 3.30955L16.0213 2.16405C16.3913 1.79403 16.9896 1.79403 17.3557 2.16405H17.3596ZM8.25862 9.93062L13.5413 4.644L15.356 6.45869L10.0694 11.7414C9.95522 11.8555 9.81351 11.9382 9.65999 11.9815L7.35718 12.6389L8.01456 10.3361C8.05787 10.1826 8.14053 10.0408 8.25469 9.92668L8.25862 9.93062ZM14.6868 0.829602L6.92024 8.59224C6.57777 8.9347 6.32977 9.3559 6.19987 9.81646L5.07405 13.7529C4.97958 14.0836 5.07012 14.4378 5.31418 14.6819C5.55823 14.9259 5.91251 15.0165 6.24317 14.922L10.1796 13.7962C10.6441 13.6624 11.0653 13.4144 11.4038 13.0758L19.1704 5.31319C20.2765 4.20706 20.2765 2.41205 19.1704 1.30591L18.6941 0.829602C17.588 -0.276534 15.7929 -0.276534 14.6868 0.829602ZM3.46406 2.36481C1.55095 2.36481 0 3.91576 0 5.82886V16.5359C0 18.449 1.55095 20 3.46406 20H14.1711C16.0842 20 17.6352 18.449 17.6352 16.5359V12.1271C17.6352 11.6036 17.214 11.1824 16.6904 11.1824C16.1669 11.1824 15.7457 11.6036 15.7457 12.1271V16.5359C15.7457 17.4059 15.0411 18.1105 14.1711 18.1105H3.46406C2.59411 18.1105 1.88948 17.4059 1.88948 16.5359V5.82886C1.88948 4.95891 2.59411 4.25429 3.46406 4.25429H7.87285C8.3964 4.25429 8.8176 3.8331 8.8176 3.30955C8.8176 2.78601 8.3964 2.36481 7.87285 2.36481H3.46406Z" fill="#141414" fill-opacity="0.7"/>
</svg>
